<?xml version="1.0" standalone="no"?>
<!DOCTYPE svg PUBLIC "-//W3C//DTD SVG 1.1//EN" "http://www.w3.org/Graphics/SVG/1.1/DTD/svg11.dtd" >
<svg xmlns="http://www.w3.org/2000/svg">
<metadata></metadata>
<defs>
<font id="cmu_typewriter_textoblique" horiz-adv-x="1075" >
<font-face units-per-em="2048" ascent="1587" descent="-461" />
<missing-glyph horiz-adv-x="500" />
<glyph horiz-adv-x="0" />
<glyph unicode="&#xd;" />
<glyph unicode=" " />
<glyph unicode="!" d="M428 117q0 55 43 97t98 42q51 0 84 -34t33 -83q0 -55 -43 -97t-96 -42q-49 0 -84 33t-35 84zM512 475q0 14 4 39l80 623q8 55 39 87.5t56.5 41t47.5 8.5q47 0 82 -33t35 -82q0 -8 -12 -76l-121 -587q-10 -49 -23.5 -65.5t-56.5 -16.5h-59q-72 0 -72 61z" />
<glyph unicode="&#x22;" d="M414 731q0 6 8 82t19.5 187.5t17.5 168.5q4 41 23.5 66t38 31t36.5 6q37 0 61.5 -23.5t24.5 -60.5q0 -12 -98 -445q-16 -72 -68 -71q-27 0 -45 16t-18 43zM774 729q0 12 43 414q10 125 98 129h3q37 0 61.5 -23.5t24.5 -60.5q0 -10 -99 -443q-16 -74 -67 -73h-2 q-27 0 -44.5 15t-17.5 42z" />
<glyph unicode="#" d="M137 406q2 63 82 63h125l94 313h-151q-37 0 -56.5 18.5t-19.5 43.5q0 12 4 25.5t23.5 26.5t50.5 13h188q6 25 78 265l2 10q4 12 8 21t12.5 20.5t20.5 17.5t29 6q25 0 43 -17.5t18 -43.5q0 -18 -80 -279h236q6 25 78 265l4 10q2 12 6 21t12 20.5t20.5 17.5t28.5 6 q25 0 43.5 -17.5t18.5 -43.5q0 -18 -80 -279h80q35 0 51 -8q35 -16 35 -53t-33 -57q-14 -8 -64 -9h-108l-94 -313h151q35 0 54.5 -18.5t19.5 -44.5q0 -63 -76 -64h-188q-90 -301 -94 -307q-20 -35 -56 -35q-25 0 -44 18.5t-19 44.5q0 12 12 55.5t33.5 111t34.5 112.5h-234 q-90 -301 -94 -307q-20 -35 -55 -35q-25 0 -43.5 18.5t-18.5 44.5q0 12 12.5 55.5t34 111t33.5 112.5h-82q-84 1 -86 64zM475 469h236l92 313h-234z" />
<glyph unicode="$" d="M172 293q0 98 47 133q27 16 55 16q35 0 59.5 -23.5t24.5 -62.5q0 -45 -43 -80q10 -133 177 -157h2l77 473q-25 4 -41 8t-71.5 27.5t-90 52.5t-66.5 84t-32 125q0 125 107.5 235.5t304.5 135.5q2 12 5 30.5t4 28.5t4 24.5t5 21.5t5.5 17.5t7.5 14.5t9 10t11 8t13.5 4 t17.5 2q27 0 44 -16t17 -43q0 -10 -14 -102l12 -3q10 0 26.5 -4t40 -9t48.5 -15t49.5 -24.5t47 -36t40 -48t27.5 -63.5t10 -80q0 -143 -100 -143q-35 0 -60.5 24.5t-25.5 61.5q0 31 19.5 57.5t19.5 34.5q0 18 -10.5 37.5t-52.5 46t-114 37.5l-69 -424q96 -20 161.5 -63.5 t92 -95.5t35 -87t8.5 -68q0 -143 -121 -265t-297 -138q-16 -119 -33 -139q-14 -23 -47 -23q-27 0 -44 15.5t-17 43.5q0 25 14 105q-135 16 -217 92t-82 207zM403 899q0 -119 193 -164l66 393q-117 -20 -188 -87.5t-71 -141.5zM621 123q119 27 189.5 102.5t70.5 157.5 q0 139 -187 182z" />
<glyph unicode="%" d="M162 -98q0 20 16 49l797 1415q33 55 74 55q29 0 50 -21.5t21 -49.5q0 -20 -16 -50l-801 -1423q-27 -47 -70 -47q-31 0 -51 21.5t-20 50.5zM258 1085q0 129 65.5 232.5t153.5 103.5q66 0 107 -58t41 -153q0 -129 -65.5 -232.5t-153.5 -103.5q-61 0 -104.5 55.5 t-43.5 155.5zM373 1092q0 -37 10 -64t25 -27q31 0 66.5 63.5t35.5 139.5q0 31 -9 60.5t-28 29.5q-29 0 -64.5 -61t-35.5 -141zM657 41q0 131 67 232.5t150 101.5q66 0 108 -58.5t42 -152.5q0 -127 -65.5 -230.5t-153.5 -103.5q-61 0 -104.5 54.5t-43.5 156.5zM772 47 q0 -39 11.5 -64.5t23.5 -25.5q31 0 66.5 62.5t35.5 140.5q0 27 -9 57.5t-28 30.5q-29 0 -64.5 -62.5t-35.5 -138.5z" />
<glyph unicode="&#x26;" d="M100 229q0 66 14.5 116t58.5 104.5t80 90t124 111.5q-14 80 -15 174q0 117 23 205t54.5 133t72.5 72t66.5 33t48.5 6q74 0 115.5 -54.5t41.5 -152.5q0 -119 -58 -218t-222 -247q35 -137 104 -274q117 170 248 430q-70 0 -70 57q0 68 84 68h189q82 0 82 -60q0 -66 -84 -65 h-70q-203 -387 -319 -547q74 -109 141 -109q39 0 68.5 37t42.5 84q12 59 57 60q18 0 37.5 -14.5t19.5 -45.5q0 -63 -61.5 -154.5t-163.5 -91.5q-125 0 -219 144q-135 -143 -277 -144q-90 0 -151.5 66.5t-61.5 185.5zM242 225q0 -123 77 -123q51 0 108.5 37t98.5 88 q-78 160 -116 287q-68 -61 -95.5 -91t-50 -81t-22.5 -117zM477 827q0 -74 4 -73q6 0 49 46t68 77q70 86 70 180q0 92 -43 92q-10 0 -24.5 -4t-37 -22.5t-41 -50.5t-32 -95.5t-13.5 -149.5z" />
<glyph unicode="'" d="M594 731q0 14 23.5 233.5t25.5 229.5q8 39 37 58.5t57 19.5q35 0 60.5 -23.5t25.5 -60.5q0 -12 -98 -445q-16 -72 -68 -71h-2q-27 0 -44 16t-17 43z" />
<glyph unicode="(" d="M446 483q0 139 40 272.5t101.5 232.5t135.5 184t142.5 137.5t120.5 82t75 29.5q31 0 46 -17.5t15 -39.5q0 -31 -30 -51q-156 -94 -264.5 -216t-155.5 -243t-65.5 -210t-18.5 -167q0 -342 248 -528q41 -31 41 -60q0 -18 -15.5 -37.5t-48.5 -19.5q-39 0 -112.5 67.5 t-122.5 137.5q-132 194 -132 446z" />
<glyph unicode=")" d="M162 -111q0 31 31 52q127 76 223 174t147 187t83 186.5t41 163t9 124.5q0 342 -247 529q-41 31 -41 59q0 18 15 37.5t48 19.5q39 0 113.5 -68.5t122.5 -135.5q131 -199 131 -447q0 -166 -56.5 -322.5t-137.5 -264t-170 -190.5t-155.5 -122t-93.5 -39q-35 0 -49 19.5 t-14 37.5z" />
<glyph unicode="*" d="M213 428q0 47 59 78l244 119l-203 120q-39 20 -39 58q0 29 24 53.5t56 24.5q20 0 47 -19l195 -131l37 254q4 33 21.5 52.5t31.5 24.5t29 5q27 0 42 -16.5t15 -38.5q0 -14 -4 -31l-47 -250l244 133q31 16 47 17q57 0 57 -58q0 -47 -61 -78l-242 -118l205 -123 q37 -20 37 -55q0 -29 -23.5 -53.5t-56.5 -24.5q-20 0 -47 18l-197 131l-18 -135q-10 -82 -19 -129q-6 -39 -31.5 -55.5t-48.5 -16.5q-25 0 -41 15.5t-16 40.5q0 14 6 43l45 237l-252 -139q-20 -10 -39 -10q-31 0 -44 18.5t-13 38.5z" />
<glyph unicode="+" d="M182 627q0 41 39 57q16 6 62 6h305q0 2 53 318q0 10 3 24.5t19.5 33.5t43 19t45 -19t18.5 -40q0 -18 -53 -336h299q84 0 84 -65q0 -61 -76 -62h-330q-45 -293 -59 -345t-62 -52q-25 0 -43 18.5t-18 46.5q0 2 55 332h-307q-78 1 -78 64z" />
<glyph unicode="," d="M332 -219q0 47 51 55q137 49 190 166q-6 -2 -26 -2q-49 0 -83 31.5t-34 85t39 96.5t102 43q68 0 109 -50t41 -122q0 -141 -119 -255t-205 -114q-29 0 -47 21.5t-18 44.5z" />
<glyph unicode="-" d="M250 436q0 14 4 27.5t22.5 27t47.5 13.5h575q68 0 68 -60q0 -66 -74 -65h-576q-67 2 -67 57z" />
<glyph unicode="." d="M428 117q0 55 43 97t98 42q51 0 84 -34t33 -83q0 -55 -43 -97t-96 -42q-49 0 -84 33t-35 84z" />
<glyph unicode="/" d="M100 -109q0 12 4.5 22.5t13.5 24t11 17.5l922 1417q31 49 65 49q25 0 44.5 -17.5t19.5 -43.5q0 -25 -23 -57l-924 -1420q-35 -53 -71 -53q-25 0 -43.5 18t-18.5 43z" />
<glyph unicode="0" d="M193 465q0 205 80.5 393.5t209.5 302t267 113.5q152 0 246 -141.5t94 -346.5q0 -203 -80 -391t-210 -303t-268 -115q-152 0 -245.5 140.5t-93.5 347.5zM338 485q0 -164 58.5 -273.5t156.5 -109.5q150 0 273.5 223.5t123.5 462.5q0 147 -59.5 254t-163.5 107 q-141 0 -265 -197t-124 -467z" />
<glyph unicode="1" d="M236 57q0 68 86 68h194l141 856q-113 -82 -217 -82q-66 0 -65 57q0 63 74 68q152 12 272 215q23 35 57 35q31 0 46.5 -17.5t15.5 -42.5q0 -2 -4 -26l-177 -1063h175q84 0 84 -57q0 -68 -87 -68h-512q-83 0 -83 57z" />
<glyph unicode="2" d="M117 59q0 37 41 68l542 397q274 209 275 406q0 109 -81 164t-194 55q-92 0 -164.5 -47t-111.5 -115q20 -25 20 -55q0 -39 -28.5 -68.5t-69.5 -29.5q-35 0 -60.5 24.5t-25.5 61.5q0 113 127 233.5t326 120.5q184 0 294.5 -96.5t110.5 -245.5q0 -262 -350 -516l-403 -291 h481q2 45 17.5 67.5t27.5 25.5t33 3q70 0 69 -59q0 -31 -16 -113q-8 -33 -28.5 -41t-55.5 -8h-694q-82 0 -82 59z" />
<glyph unicode="3" d="M135 250q0 125 98 125q35 0 60.5 -22.5t25.5 -61.5q0 -49 -36 -78q53 -111 266 -111q147 0 251.5 94.5t104.5 204.5q0 82 -63.5 146.5t-194.5 64.5h-94q-82 0 -82 60q0 43 25.5 54t124.5 17q131 8 206 64q55 43 88 101.5t33 105.5q0 59 -57 97t-150 38q-172 0 -247 -72 l2 -4q4 -6 6 -16t2 -21q0 -43 -30 -70.5t-66 -27.5q-27 0 -56.5 19.5t-29.5 66.5q0 94 104 172t315 78q168 0 259.5 -79t91.5 -181q0 -66 -51.5 -165t-174.5 -169q88 -47 134.5 -123t46.5 -158q0 -160 -146.5 -291t-353.5 -131q-104 0 -193.5 26t-154 90.5t-64.5 156.5z" />
<glyph unicode="4" d="M127 406q0 49 31 88l598 745q20 27 35.5 32t52.5 5h57q23 0 35 -2t25.5 -13.5t15.5 -33.5l-127 -756h149q84 0 84 -57q0 -68 -86 -68h-166l-36 -221h114q84 0 84 -57q0 -68 -86 -68h-366q-82 0 -82 59q0 66 84 66h135l37 221h-506q-82 1 -82 60zM281 471h454l119 711h-2z " />
<glyph unicode="5" d="M154 262q0 127 98 127q41 0 64.5 -26.5t23.5 -57.5q0 -51 -41 -80q20 -63 81.5 -93t135.5 -30q145 0 262 101.5t117 245.5q0 92 -53.5 157.5t-153.5 65.5q-178 0 -285 -109q-25 -25 -57 -24q-66 0 -65 59q0 12 6 47l88 533q6 35 18.5 51t25.5 19t44 3h549q82 0 82 -59 q0 -66 -84 -66h-500l-64 -383q117 53 244 54q156 0 251 -100.5t95 -250.5q0 -193 -158.5 -331t-363.5 -138q-150 0 -255 77t-105 208z" />
<glyph unicode="6" d="M193 420q0 201 62 367.5t160.5 270t214 160t230.5 56.5q113 0 180.5 -49t67.5 -140q0 -63 -28.5 -90.5t-69.5 -27.5t-63.5 23.5t-22.5 60.5q0 47 30 71q-33 27 -98 27q-147 0 -287.5 -128t-195.5 -321q139 111 311 111q166 0 259 -107.5t93 -238.5q0 -209 -151.5 -348.5 t-337.5 -139.5q-156 0 -255 112t-99 331zM336 358q0 -100 53 -178q57 -78 160 -78q129 0 237.5 104.5t108.5 256.5q0 78 -53.5 149.5t-169.5 71.5q-61 0 -120.5 -22.5t-82.5 -39t-35 -28.5q-41 -39 -62.5 -79t-24.5 -61.5t-3 -58.5q-8 -25 -8 -37z" />
<glyph unicode="7" d="M272 1090q0 14 19 124q4 25 8 36.5t20.5 22.5t45.5 11q51 0 65 -33h670q82 0 82 -59q0 -25 -13 -43q-12 -10 -63 -55q-236 -199 -391.5 -465.5t-214.5 -569.5q-4 -25 -8.5 -38t-21.5 -28.5t-46 -15.5q-27 0 -47.5 18.5t-20.5 51.5q0 18 14.5 90t69 227.5t138.5 299.5 q72 123 167 238.5t144 163.5t63 60h-532q-2 -45 -17.5 -67.5t-28 -25.5t-32.5 -3q-70 1 -70 60z" />
<glyph unicode="8" d="M145 305q0 135 103.5 233.5t238.5 135.5q-14 4 -40.5 16t-70.5 40t-74 76t-30 105q0 131 139.5 247t336.5 116q164 0 266 -85t102 -204q0 -109 -89 -190.5t-216 -118.5q117 -39 176.5 -114t59.5 -163q0 -154 -152 -288t-363 -134q-168 0 -277.5 93.5t-109.5 234.5z M289 324q0 -98 75.5 -160t190.5 -62q139 0 244.5 89.5t105.5 201.5q0 84 -69.5 151.5t-198.5 67.5q-139 0 -243.5 -87.5t-104.5 -200.5zM416 920q0 -82 71.5 -132.5t171.5 -50.5q125 0 219.5 71t94.5 161q0 72 -66.5 126t-179.5 54q-125 0 -218 -69.5t-93 -159.5z" />
<glyph unicode="9" d="M174 166q0 119 98 119q41 0 63.5 -24.5t22.5 -59.5q0 -41 -28 -70q39 -29 121 -29q139 0 270 123t188 326q-147 -111 -311 -111q-166 0 -259 106.5t-93 239.5q0 213 154.5 350.5t344.5 137.5q156 0 250.5 -112.5t94.5 -325.5q0 -193 -57.5 -359t-151 -272.5t-206 -167 t-226.5 -60.5q-117 0 -196 44.5t-79 144.5zM387 786q0 -43 16.5 -89t70.5 -88t136 -42q117 0 211 69t115 167q2 6 3 25.5t1 25.5q6 25 6 41q0 10 -1 27.5t-12 61.5t-29.5 77t-60.5 60.5t-100 27.5q-131 0 -243.5 -101.5t-112.5 -261.5z" />
<glyph unicode=":" d="M430 117q0 57 43 98t96 41q51 0 85 -35t34 -82q0 -57 -43 -98t-96 -41t-86 35t-33 82zM535 743q0 57 43 98.5t96 41.5q51 0 85 -35t34 -82q0 -57 -43 -98t-96.5 -41t-86 34.5t-32.5 81.5z" />
<glyph unicode=";" d="M332 -219q0 47 51 55q137 49 190 166q-6 -2 -26 -2q-49 0 -83 31.5t-34 85t39 96.5t102 43q68 0 109 -50t41 -122q0 -141 -119 -255t-205 -114q-29 0 -47 21.5t-18 44.5zM535 741q0 57 41.5 98.5t97.5 41.5q47 0 82 -33t35 -84q0 -59 -44.5 -99t-95.5 -40 q-49 0 -82.5 32.5t-33.5 83.5z" />
<glyph unicode="&#x3c;" d="M221 627q0 10 3 18t6 14.5t11.5 12.5t11.5 8t13 8l10 6l752 420q29 14 45 14q25 0 44.5 -17t19.5 -44q0 -41 -50 -66l-636 -354q-8 -4 -23.5 -13t-24.5 -13q31 -23 93 -64l454 -311q39 -29 39 -64q0 -25 -19.5 -42t-43.5 -17q-20 0 -47 16l-615 422q-43 29 -43 66z" />
<glyph unicode="=" d="M154 471q0 25 16 41t37 20q14 2 41 3h745q80 0 80 -63.5t-82 -63.5h-760q-45 2 -61 22.5t-16 40.5zM207 780q0 63 82 64h753q82 0 82 -63.5t-75 -63.5h-768q-43 0 -58.5 21.5t-15.5 41.5z" />
<glyph unicode="&#x3e;" d="M145 184q0 41 52 66l630 352q33 20 52 29v2l-93 61l-452 312q-41 29 -41 63q0 25 19.5 42t43.5 17q16 0 74 -34l586 -402q47 -31 47 -65q0 -41 -57 -70l-752 -420q-25 -14 -45 -14q-27 0 -45.5 18t-18.5 43z" />
<glyph unicode="?" d="M295 1004q0 37 20.5 77.5t65.5 83.5t132 71t204 28q70 0 132 -9.5t125.5 -33t102.5 -72.5t39 -119q0 -61 -40 -119.5t-111 -93.5q-92 -47 -153.5 -95t-90.5 -99.5t-38 -81t-17 -80.5q-8 -57 -23.5 -70.5t-64.5 -13.5q-82 0 -82 57q0 20 4 54t35.5 110t85.5 135 q96 106 243 176q111 57 111 121q0 109 -260 109q-174 0 -248 -78q10 -14 10 -45q0 -47 -30.5 -72.5t-65.5 -25.5q-33 0 -59.5 22.5t-26.5 63.5zM420 96q0 41 32.5 75t77.5 34q39 0 68 -29t29 -67q0 -41 -33 -75t-78 -34q-41 0 -68.5 27.5t-27.5 68.5z" />
<glyph unicode="@" d="M184 510q0 297 198 525.5t441 228.5q156 0 224.5 -108.5t68.5 -270.5q0 -31 -4 -88.5t-22.5 -162t-47.5 -169.5q-45 -102 -129 -175t-180 -73q-109 0 -177.5 92t-68.5 232q0 188 110 340.5t253 152.5q84 0 141 -53q-31 158 -170 158q-195 0 -358.5 -190.5t-163.5 -434.5 q0 -174 94 -287.5t242 -113.5q129 0 231 86q27 23 68 22q76 0 76 -57q0 -55 -148 -125q-111 -51 -227 -51q-195 0 -323 147.5t-128 374.5zM604 547q0 -98 39 -151.5t92 -53.5q84 0 164 109.5t80 255.5q0 92 -38 147t-93 55q-86 0 -165 -109.5t-79 -252.5z" />
<glyph unicode="A" d="M66 57q0 68 84 68h49l430 1083q27 68 110 68h19q53 0 68.5 -16.5t19.5 -61.5l69 -1073q41 0 59.5 -2t36 -15.5t17.5 -39.5q0 -68 -84 -68h-217q-84 0 -84 59q0 66 86 66h43l-14 213h-330l-84 -213q37 0 55.5 -2t35 -15.5t16.5 -41.5q0 -66 -84 -66h-217q-84 0 -84 57z M477 463h273l-27 483q-2 25 -2 88v66h-2q-18 -63 -78 -215z" />
<glyph unicode="B" d="M57 59q0 66 84 66h66l166 1001h-45q-84 0 -84 58q0 67 84 67h2h471q143 0 223 -80.5t80 -191.5q0 -92 -65.5 -183t-204.5 -141q98 -23 156.5 -95.5t58.5 -166.5q0 -143 -118 -268t-298 -125h-494q-82 0 -82 59zM350 125h258q133 0 216 80t83 182q0 20 -5 46t-22.5 65 t-62.5 64.5t-110 25.5h-281zM449 713h208q141 0 222.5 79.5t81.5 170.5q0 20 -6.5 43.5t-24 53.5t-58.5 48t-100 18h-256z" />
<glyph unicode="C" d="M174 494q0 197 84 378t225.5 291.5t294.5 110.5q147 0 254 -100q23 39 41 61q25 39 60 39q29 0 45 -17.5t16 -42.5q0 -10 -4 -26l-49 -301q-6 -39 -22.5 -52.5t-51.5 -13.5q-70 0 -70 70q-2 141 -67.5 199.5t-145.5 58.5q-172 0 -320.5 -200.5t-148.5 -454.5 q0 -164 76 -278t203 -114q31 0 69.5 10.5t90 35t94.5 81t61 136.5q12 47 70 47q72 0 72 -58q0 -113 -134.5 -245t-332.5 -132q-184 0 -297 149t-113 368z" />
<glyph unicode="D" d="M49 59q0 66 84 66h55l166 1001h-35q-84 0 -83 58q0 67 84 67h2h432q176 0 266 -147.5t90 -335.5q0 -193 -76 -370t-208 -287.5t-281 -110.5h-414q-82 0 -82 59zM332 125h194q186 0 313.5 194.5t127.5 425.5q0 29 -3 63t-19.5 95.5t-43.5 107.5t-81 80.5t-128 34.5h-194z " />
<glyph unicode="E" d="M63 59q0 66 84 66h72l166 1001h-51q-82 0 -82 60q0 65 82 65h2h764q82 0 82 -59q0 -10 -6 -43l-25 -141q-4 -23 -7 -32t-10.5 -21.5t-20.5 -16.5t-36 -4q-69 0 -69 57q0 6 4 28.5t9 55.5t7 51h-500l-69 -415h266q12 74 24.5 95t57.5 21q72 0 73 -57q0 -6 -6 -27l-34 -208 q-4 -23 -9.5 -35.5t-21.5 -21.5t-43 -9q-70 0 -70 59q0 16 9 58h-267l-76 -461h545l23 143q6 33 10 46.5t20.5 24.5t45.5 11q71 0 71 -55q0 -7 -6 -45.5t-13 -85.5t-9 -53q-14 -78 -27.5 -94.5t-67.5 -16.5h-809q-82 0 -82 59z" />
<glyph unicode="F" d="M68 59q0 66 84 66h77l166 1001h-57q-84 0 -84 58q0 67 84 67h2h780q82 0 82 -59q0 -10 -6 -43l-25 -141q-4 -23 -7 -32t-10 -21.5t-20.5 -16.5t-35.5 -4q-70 0 -70 59q0 4 4 26.5t9.5 55.5t7.5 51h-510l-72 -438h276q8 70 21.5 93.5t58.5 23.5q72 0 72 -57q0 -6 -4 -29 l-35 -207q-4 -23 -7 -33t-19.5 -21.5t-45.5 -11.5q-71 0 -71 58q0 18 8 59h-277l-71 -438h94q84 0 84 -57q0 -68 -84 -68h-317q-82 0 -82 59z" />
<glyph unicode="G" d="M170 481q0 309 175 551t392 242q131 0 230 -94q2 4 11 18t17 27l9 14q23 35 57 35q29 0 45 -17.5t16 -42.5q0 -8 -28.5 -176t-30.5 -174q-10 -43 -68 -43q-47 0 -58 21.5t-11 64.5q-2 111 -51.5 176.5t-131.5 65.5q-156 0 -294 -204t-138 -466q0 -166 66.5 -271.5 t171.5 -105.5q106 0 185 101.5t110 224.5h-109q-49 10 -49 57q0 31 16.5 47.5t31 18.5t40.5 2h238q86 0 86 -59q0 -31 -16.5 -46.5t-35 -17.5t-55.5 -2q-39 -268 -63 -387q-12 -41 -70 -41q-33 0 -50 14.5t-17 28.5v18v11v6q-117 -100 -250 -101q-162 0 -266.5 140.5 t-104.5 363.5z" />
<glyph unicode="H" d="M53 57q0 68 86 68h60l166 1001h-41q-82 0 -82 60q0 65 82 65h2h243q84 0 84 -57q0 -68 -86 -68h-59l-68 -413h432l68 413h-41q-82 0 -82 60q0 65 82 65h2h244q84 0 84 -57q0 -68 -86 -68h-60l-165 -1001h38q84 0 84 -57q0 -68 -84 -68h-243q-84 0 -84 57q0 68 86 68h59 l76 463h-432l-76 -463h39q84 0 84 -57q0 -68 -84 -68h-244q-84 0 -84 57z" />
<glyph unicode="I" d="M172 59q0 66 84 66h231l166 1001h-211q-82 0 -82 60q0 65 82 65h2h584q84 0 84 -59q0 -66 -84 -66h-231l-166 -1001h211q82 0 82 -59q0 -66 -84 -66h-586q-82 0 -82 59z" />
<glyph unicode="J" d="M178 184q0 61 30 88t68 27q37 0 61.5 -23.5t24.5 -60.5q0 -43 -24 -68q51 -45 156 -45q84 0 156.5 47.5t88.5 137.5l140 839h-158q-82 0 -82 60q0 65 82 65h2h373q82 0 82 -59q0 -66 -84 -66h-72l-143 -866q-20 -119 -130 -201t-257 -82q-137 0 -225.5 54.5t-88.5 152.5z " />
<glyph unicode="K" d="M63 59q0 66 84 66h56l166 1001h-35q-84 0 -84 58q0 67 84 67h2h207q82 0 82 -59q0 -66 -84 -66h-56l-90 -544l523 544q-74 0 -74 60q0 65 82 65h2h180q84 0 84 -59q0 -66 -84 -66h-43l-379 -393l242 -608q31 0 47 -2t32.5 -15.5t16.5 -41.5q0 -66 -84 -66h-156 q-82 0 -82 59q0 31 16.5 46.5t32 17.5t44.5 2l-201 512l-229 -240l-46 -272h35q82 0 82 -59q0 -66 -84 -66h-207q-82 0 -82 59z" />
<glyph unicode="L" d="M74 59q0 66 86 66h84l166 1001h-64q-84 0 -84 60q0 65 82 65h2h332q84 0 84 -59q0 -66 -86 -66h-123l-166 -1001h492l22 143q6 33 10 46.5t20.5 24.5t45.5 11q72 0 72 -57q0 -6 -6.5 -44t-13.5 -85t-9 -53q-14 -78 -27.5 -94.5t-66.5 -16.5h-768q-84 0 -84 59z" />
<glyph unicode="M" d="M45 59q0 66 84 66h35l166 1001q-31 0 -47.5 2t-34 16.5t-17.5 41.5q0 65 83 65h3h123q68 0 86 -39q8 -12 53.5 -291.5t49.5 -357.5h2q23 57 135 287l172 344q29 57 113 57h104q82 0 82 -59q0 -66 -84 -66h-35l-166 -1001q31 0 47.5 -2t34 -15.5t17.5 -39.5q0 -68 -86 -68 h-166q-82 0 -82 59q0 66 84 66h35l159 971h-2q-14 -35 -41 -90l-258 -525q-31 -63 -88 -63q-20 0 -33.5 6t-21.5 25.5t-11 32t-10 46.5q-4 20 -17 106.5t-28 172.5q-35 213 -43 291h-2l-159 -973q31 0 47 -2t33.5 -15.5t17.5 -39.5q0 -68 -86 -68h-166q-82 0 -82 59z" />
<glyph unicode="N" d="M66 57q0 68 86 68h59l166 1001h-41q-82 0 -82 60q0 65 82 65h2h147q47 0 68.5 -13t32.5 -60l205 -1022h2l161 970h-41q-82 0 -82 60q0 65 82 65h2h218q84 0 84 -57q0 -68 -87 -68h-59l-176 -1060q-6 -45 -25.5 -55.5t-60.5 -10.5h-14q-55 0 -72.5 16.5t-26.5 59.5 l-204 1020h-3l-161 -971h39q84 0 84 -57q0 -68 -84 -68h-217q-84 0 -84 57z" />
<glyph unicode="O" d="M172 227q0 119 47 405t100 433q49 133 142.5 171t286.5 38q217 0 289.5 -46t72.5 -204q0 -115 -46 -394.5t-91 -414.5q-51 -150 -140.5 -194t-300.5 -44q-217 0 -288.5 47t-71.5 203zM322 288.5q0 -104.5 42 -145.5t191 -41q164 0 221.5 55.5t100.5 229.5q23 94 55.5 296 t32.5 290q0 109 -49.5 142.5t-188.5 33.5q-152 0 -210 -42t-97 -183q-27 -100 -62.5 -315.5t-35.5 -320z" />
<glyph unicode="P" d="M63 59q0 66 84 66h72l166 1001h-51q-82 0 -82 60q0 65 82 65h2h467q160 0 246 -94t86 -221q0 -162 -132.5 -298t-324.5 -136h-254l-62 -377h52q82 0 82 -59q0 -66 -84 -66h-267q-82 0 -82 59zM446 627h216q145 0 237 90t92 196q0 78 -59.5 145.5t-188.5 67.5h-215z" />
<glyph unicode="Q" d="M172 227q0 119 47 405t100 433q49 133 142.5 171t286.5 38q217 0 289.5 -46t72.5 -204q0 -168 -78 -578q-45 -231 -96 -318t-133 -118q14 -39 28.5 -79t25.5 -69.5t13 -37.5q20 -49 21 -64q0 -45 -72 -45h-18q-55 0 -68 23q-12 29 -86 242q-23 -2 -115 -3 q-217 0 -288.5 47t-71.5 203zM319 285q0 -98 40 -140.5t178 -42.5h65l-27 82q-41 90 -40 121q0 45 73 45h21q33 0 40 -5t17 -28l68 -178q27 16 44 36t49 112t60 252q55 322 56 430q0 106 -47.5 143t-188.5 37q-152 0 -211 -44t-96 -179q-29 -102 -65 -323.5t-36 -317.5z" />
<glyph unicode="R" d="M53 57q0 68 86 68h60l166 1001h-41q-82 0 -82 60q0 65 82 65h2h370q164 0 255 -88t91 -207q0 -92 -58 -184t-171 -154q88 -78 88 -186q0 -20 -18 -131q-18 -115 -19 -135q0 -63 33 -64q14 0 27.5 14.5t19.5 32t10 31.5l7 17q4 29 17 42t23.5 15t30.5 2q70 0 70 -57.5 t-55.5 -139.5t-149.5 -82q-70 0 -121 47.5t-51 153.5q0 45 23 172q0 4 6 39t6 41q0 18 -6 36.5t-22.5 42t-54.5 39t-93 15.5h-170l-72 -438h39q84 0 84 -57q0 -68 -84 -68h-244q-84 0 -84 57zM436 688h146q141 0 229 78t88 170q0 74 -61.5 132t-182.5 58h-147z" />
<glyph unicode="S" d="M113 37q0 8 26.5 172t32.5 176q16 31 66 31q69 0 69 -58q0 -6 -2 -22.5t-2 -34.5q0 -47 17.5 -83t49 -56.5t61.5 -33.5t68 -18.5t55 -6.5t36 -1q129 0 216 86t87 187q0 61 -36 109t-105 67l-131 33q-135 33 -182.5 50t-88.5 56q-90 94 -90 207q0 150 127 263.5t303 113.5 q174 0 277 -98q29 57 28 63q20 35 58 35q29 0 45 -17.5t16 -42.5q0 -10 -4 -26l-47 -287q-6 -35 -21.5 -50t-52.5 -15q-33 0 -49 13t-18 26.5t-2 35.5q0 238 -234 238q-117 0 -204 -74t-87 -166q0 -109 113 -151q6 -2 25.5 -7.5t46 -11.5t43.5 -10q172 -41 220 -58.5 t87 -56.5q98 -98 98 -229q0 -150 -126 -279t-314 -129q-213 0 -326 97q-18 -37 -24.5 -49.5t-17.5 -26.5t-20.5 -17.5t-25.5 -3.5q-27 0 -44 16.5t-17 43.5z" />
<glyph unicode="T" d="M219 993q0 10 6 45l23 140q8 51 26.5 62t61.5 11h801q82 0 82 -59q0 -10 -7 -43l-24 -141q-4 -23 -7 -32t-10.5 -21.5t-20.5 -16.5t-36 -4q-70 0 -70 59q0 4 4.5 26.5t9.5 55.5t7 51h-268l-166 -1001h94q84 0 84 -59q0 -66 -84 -66h-354q-84 0 -84 59q0 66 86 66h114 l166 1001h-270l-21 -122q-4 -25 -8 -37.5t-20.5 -22.5t-44.5 -10q-70 0 -70 59z" />
<glyph unicode="U" d="M207 1186q0 65 82 65h2h266q82 0 82 -59q0 -66 -84 -66h-72l-121 -723q-4 -25 -4 -61q0 -111 53.5 -175.5t133.5 -64.5q100 0 191 95.5t112 224.5l117 704h-52q-82 0 -82 60q0 65 82 65h2h267q82 0 82 -59q0 -66 -84 -66h-72l-121 -729q-27 -160 -154.5 -290t-289.5 -130 q-137 0 -231.5 101.5t-94.5 265.5q0 41 6 78l117 704h-51q-82 1 -82 60z" />
<glyph unicode="V" d="M233 1184q0 67 84 67h2h211q82 0 82 -59q0 -66 -84 -66h-41l58 -700q14 -174 14 -279h2q20 61 133 338l269 641q-35 0 -53.5 2t-36 15.5t-17.5 40.5q0 67 84 67h2h211q82 0 82 -59q0 -66 -84 -66h-43l-453 -1077q-12 -31 -34.5 -46t-39 -17t-46.5 -2q-37 0 -53.5 3 t-31 19.5t-16.5 52.5l-94 1067q-35 0 -53.5 2t-36 15.5t-17.5 40.5z" />
<glyph unicode="W" d="M221 1186q0 65 82 65h2h162q84 0 84 -57q0 -68 -86 -68h-62q-2 -25 -2 -63q-2 -92 -7 -263t-7 -225q-12 -340 -20 -413h2q18 74 106 304t103 249q27 37 84 37q53 0 65 -23.5t16 -122.5q16 -252 17 -360q0 -12 -1 -49t-1 -39h2l82 293l202 675h-43q-82 0 -81 60 q0 65 82 65h2h161q84 0 84 -57q0 -31 -16 -47.5t-31.5 -18.5t-40.5 -2l-327 -1069q-8 -23 -13.5 -35t-26 -25t-53.5 -13q-53 0 -65 23.5t-17 107.5q-2 37 -7 112.5t-7 112.5q0 35 -4 119t-4 100v37h-2q-14 -51 -111.5 -302t-107.5 -267q-27 -43 -86 -43q-33 0 -50.5 12 t-19.5 24.5t-2 38.5q0 51 4 148.5t4 128.5q4 184 8 276q2 35 3.5 76t2.5 91t1 77t2 74t3 86t1 74v36q-66 5 -66 60zM365 145l2 2h-2v-2z" />
<glyph unicode="X" d="M66 59q0 66 84 66h55l360 541l-168 460h-39q-82 0 -82 60q0 65 82 65h2h213q84 0 84 -57q0 -31 -17 -47.5t-33.5 -18.5t-51.5 -2l109 -299l194 299q-84 0 -84 60q0 65 83 65h3h211q84 0 84 -59q0 -66 -84 -66h-55l-309 -458l198 -543h39q82 0 82 -59q0 -66 -84 -66h-213 q-84 0 -84 57q0 31 17.5 47.5t35 18.5t52.5 2l-138 397l-254 -397q86 0 86 -59q0 -66 -84 -66h-213q-81 0 -81 59z" />
<glyph unicode="Y" d="M236 1186q0 65 81 65h2h213q84 0 84 -57q0 -31 -16 -47.5t-34.5 -18.5t-55.5 -2l72 -231q55 -188 61 -248h2q14 37 148 252l145 227q-84 0 -84 60q0 65 82 65h2h213q84 0 84 -57q0 -68 -86 -68h-53l-404 -626l-63 -375h41q84 0 84 -57q0 -68 -84 -68h-244q-84 0 -84 57 q0 68 86 68h59l64 375l-199 626h-35q-81 1 -81 60z" />
<glyph unicode="Z" d="M106 49q0 45 31 80l842 997h-526l-21 -122q-4 -25 -8 -37.5t-20.5 -22.5t-45.5 -10q-69 0 -69 57q0 12 6 47l22 140q8 51 26.5 62t62.5 11h694q23 0 35 -2t25.5 -13t13.5 -34q0 -45 -31 -80l-840 -997h561q8 57 25 147q6 49 19.5 66.5t56.5 17.5q69 0 69 -57 q0 -10 -6 -49t-13 -84t-9 -55q-14 -78 -27.5 -94.5t-67.5 -16.5h-729q-76 0 -76 49z" />
<glyph unicode="[" d="M434 -111q0 12 53 328l193 1145q8 59 76 59h389q70 0 69 -59q0 -68 -69 -68h-332l-223 -1339h311q70 0 70 -59q0 -66 -76 -66h-389q-72 0 -72 59z" />
<glyph unicode="\" d="M346 1358q0 27 19.5 45t42.5 18q10 0 18 -3t14 -6t11.5 -9t8.5 -11.5t7 -14.5t5 -12t4 -12.5t3 -11.5l443 -1398l12 -49q0 -27 -18.5 -45.5t-43.5 -18.5q-49 0 -67 64l-451 1421q-8 29 -8 43z" />
<glyph unicode="]" d="M63 -111q0 25 16.5 45.5t55.5 20.5h332v2l223 1339h-311q-70 0 -70 60q0 66 76 65h387q72 0 72 -59q0 -14 -4 -39l-236 -1407q0 -4 -2 -15.5t-3 -16.5t-4 -14t-6 -13t-9.5 -10.5t-13.5 -9.5t-17 -5t-25 -2h-385q-76 0 -76 59z" />
<glyph unicode="^" d="M313 946q0 39 60 64q334 147 346 147q14 0 46 -15.5t257 -131.5q53 -29 53 -64q0 -23 -22.5 -52.5t-51.5 -29.5q-25 0 -148.5 74t-139.5 74q-12 0 -287 -131q-39 -16 -47 -17q-33 0 -49.5 28.5t-16.5 53.5z" />
<glyph unicode="_" d="M94 -123q0 14 4 27.5t25.5 29t56.5 15.5h672q47 0 66.5 -24.5t19.5 -47.5q0 -14 -5 -28.5t-26.5 -29t-56.5 -14.5h-672q-84 2 -84 72z" />
<glyph unicode="`" d="M428 1235q0 31 22.5 52.5t51.5 21.5h2q16 0 287 -127q55 -25 55 -64q0 -25 -21.5 -53.5t-50.5 -28.5h-4q-14 0 -283 127q-59 29 -59 72z" />
<glyph unicode="a" d="M154 233q0 305 667 334q6 25 6 58q0 18 -5 37.5t-24.5 48t-68.5 47t-125 18.5q-86 0 -131 -10q0 -45 -22.5 -71.5t-41 -32t-32.5 -5.5q-35 0 -60.5 22.5t-25.5 61.5q0 160 313 160q94 0 166 -24.5t108.5 -57.5t59.5 -75t28 -69.5t5 -49.5l-78 -490q45 -10 106 -10 q86 0 86 -57q0 -31 -16 -47.5t-33.5 -18.5t-54.5 -2q-90 0 -139 13.5t-76 52.5q-119 -78 -309 -78q-139 0 -221 71.5t-82 173.5zM295 236q0 -55 50 -89t130 -34q123 0 209 43q51 29 66.5 56.5t25.5 86.5l25 147q-207 -4 -356.5 -60t-149.5 -150z" />
<glyph unicode="b" d="M209 59q0 12 6 45l170 1022h-80q-84 0 -84 58q0 67 84 67h2h150q82 0 82 -59q0 -10 -7 -43l-57 -346q127 92 264 92q143 0 241.5 -105.5t98.5 -273.5q0 -213 -151.5 -370.5t-341.5 -157.5q-131 0 -230 110q-2 -45 -16 -68.5t-26.5 -26.5t-34.5 -3q-70 0 -70 59zM399 342 q0 -90 45 -156q46 -73 134 -73h2q135 0 246.5 120.5t111.5 282.5q0 111 -58.5 182.5t-152.5 71.5q-86 0 -165 -53t-120 -135q-6 -12 -17 -71.5t-18.5 -112t-7.5 -56.5z" />
<glyph unicode="c" d="M217 375q0 84 35 173t99.5 170t173 132t241.5 51q55 0 90 -3t88 -14.5t82 -42t29 -79.5q0 -55 -32 -80t-65 -25q-84 0 -84 107l-6 6q-20 6 -106 6q-131 0 -227.5 -71.5t-136.5 -159.5t-40 -168q0 -111 72 -187.5t193 -76.5q70 0 131 32.5t96 90.5q14 27 27.5 36t44.5 9 q69 0 69 -56q0 -22 -22.5 -58t-65.5 -78t-122 -71.5t-173 -29.5q-178 0 -284.5 113.5t-106.5 273.5z" />
<glyph unicode="d" d="M141 367q0 215 151.5 371.5t340.5 156.5q150 0 231 -98l56 329h-80q-84 0 -84 58q0 67 84 67h2h149q82 0 82 -59q0 -10 -6 -43l-170 -1024h80q82 0 82 -59q0 -66 -84 -66h-150q-82 0 -82 59q0 14 5 35q-127 -106 -265 -106q-145 0 -243.5 105.5t-98.5 273.5zM283 367 q0 -115 60 -184.5t151 -69.5q104 0 196 91t113 216q27 160 26 168q0 53 -46 117.5t-142 64.5q-133 0 -245.5 -120.5t-112.5 -282.5z" />
<glyph unicode="e" d="M182 381q0 203 155 361.5t357 158.5q59 0 114.5 -16.5t109 -52t85 -108.5t31.5 -171q0 -78 -12 -114t-27.5 -42t-52.5 -6h-618q0 -139 87 -208.5t197 -69.5q70 0 134.5 31.5t103.5 91.5q16 29 28.5 37t43.5 8q69 0 69 -56q0 -25 -25.5 -61.5t-71.5 -77.5t-126 -69.5 t-172 -28.5q-176 0 -293 110.5t-117 282.5zM350 514h541q2 14 2 43q0 219 -201 219q-111 0 -208 -75.5t-134 -186.5z" />
<glyph unicode="f" d="M96 59q0 66 84 66h217l105 633h-195q-84 0 -84 57q0 68 86 68h213q25 147 40.5 187t62.5 87q98 106 274 107q186 0 186 -115q0 -49 -30.5 -73.5t-61.5 -24.5q-12 0 -25.5 2t-35 24.5t-23.5 61.5q-106 0 -160.5 -44t-64.5 -108q-4 -23 -9 -53.5t-9 -50.5h239q82 0 82 -60 q0 -65 -82 -65h-2h-258l-104 -633h196q82 0 82 -59q0 -66 -84 -66h-557q-82 0 -82 59z" />
<glyph unicode="g" d="M29 -195q0 33 11 75t60.5 106.5t128.5 107.5q-31 47 -30 109q0 94 67 176q-37 74 -37 145q0 143 116 257t271 114q113 0 189 -61q111 71 226 71h3q78 0 110 -33.5t32 -70.5q0 -39 -26 -64.5t-60 -25.5q-23 0 -47.5 16t-30.5 51q-66 -4 -129 -39q31 -61 30 -131 q0 -145 -116.5 -257.5t-268.5 -112.5q-102 0 -180 53q-31 -45 -31 -88q0 -33 13.5 -51.5t25 -20.5t29.5 -2q16 -4 59 -4h144q43 0 80 -2t100 -17.5t108.5 -40t79 -76.5t33.5 -124q0 -150 -157.5 -242t-362.5 -92q-199 0 -319.5 80.5t-120.5 193.5zM147 -193q0 -59 90.5 -106 t231.5 -47q152 0 275.5 59.5t123.5 151.5q0 35 -13 60.5t-44 41t-58.5 24.5t-81 12t-85 4t-94.5 1q-115 0 -151 -5t-77 -28q-57 -35 -87 -84t-30 -84zM371 522q0 -70 43 -116t114 -46q94 0 169 77t75 173q0 72 -44 117t-114 45q-94 0 -168.5 -77t-74.5 -173z" />
<glyph unicode="h" d="M35 59q0 66 84 66h100l166 1001h-80q-84 0 -84 58q0 67 84 67h2h150q82 0 82 -59q0 -10 -7 -43l-59 -354q133 100 272 100q111 0 173.5 -54.5t62.5 -168.5q0 -39 -16 -133l-68 -414h80q82 0 82 -59q0 -66 -84 -66h-313q-82 0 -82 59q0 66 84 66h90l82 493q4 25 4 54 q0 49 -21.5 73.5t-83.5 24.5q-90 0 -168 -55.5t-116 -132.5q-25 -57 -89 -457h80q82 0 82 -59q0 -66 -84 -66h-323q-82 0 -82 59z" />
<glyph unicode="i" d="M170 59q0 66 84 66h258l104 633h-221q-82 0 -82 59q0 66 84 66h291q82 0 82 -60q0 -10 -6 -43l-109 -655h205q82 0 82 -59q0 -66 -84 -66h-606q-82 0 -82 59zM618 1145q0 41 33 74.5t78 33.5q41 0 68.5 -27.5t27.5 -66.5q0 -45 -32.5 -77.5t-77.5 -32.5q-39 0 -68 28.5 t-29 67.5z" />
<glyph unicode="j" d="M45 -326q0 55 32 82t66 27q33 0 59.5 -22.5t26.5 -63.5q0 -12 -1 -18.5t-1 -8.5q0 -12 99 -12q117 0 190 82q63 76 82 178l139 840h-254q-84 0 -84 57q0 68 86 68h324q82 0 82 -60q0 -10 -6 -43l-146 -878q-8 -43 -29.5 -95.5t-66.5 -119t-131 -110.5t-197 -44 q-270 0 -270 141zM739 1145q0 41 33 74.5t78 33.5q41 0 68.5 -27.5t27.5 -66.5q0 -45 -32.5 -77.5t-77.5 -32.5q-41 0 -69 28.5t-28 67.5z" />
<glyph unicode="k" d="M51 59q0 66 86 66h109l166 1001h-90q-82 0 -82 60q0 65 82 65h2h133q82 0 82 -59q0 -10 -7 -43l-116 -700l383 309h-66q-84 0 -84 59q0 66 84 66h316q84 0 84 -58q0 -67 -82 -67h-2h-84l-289 -236l237 -397h56q82 0 82 -59q0 -66 -84 -66h-242q-84 0 -84 59q0 66 86 66 h43l-192 317l-189 -151q-8 -43 -13 -78t-8 -57.5t-6 -30.5h89q84 0 84 -59q0 -66 -84 -66h-316q-84 0 -84 59z" />
<glyph unicode="l" d="M129 59q0 66 84 66h274l166 1001h-254q-84 0 -84 58q0 67 84 67h2h324q82 0 82 -59q0 -10 -6 -43l-170 -1024h254q84 0 84 -57q0 -68 -86 -68h-672q-82 0 -82 59z" />
<glyph unicode="m" d="M2 59q0 68 76 68h49l104 629h-32q-72 0 -72 59q0 25 15.5 45.5t52.5 20.5h86q74 0 79 -58q90 70 183 70q115 0 149 -107q106 106 223 107q61 0 111.5 -43t50.5 -150q0 -37 -13 -124t-38 -228t-37 -221h33q72 0 72 -61q0 -66 -76 -66h-191q-70 2 -69 59q0 68 76 68h36 q10 59 34 199.5t40.5 239t16.5 122.5q0 78 -54 78q-66 0 -137.5 -72.5t-95.5 -224.5l-58 -342h33q72 0 72 -61q0 -66 -74 -66h-192q-70 2 -70 59q0 68 76 68h39q20 133 43.5 268t34 199.5t10.5 99.5q0 72 -53 72q-68 0 -131.5 -65.5t-90.5 -168.5q-16 -59 -67 -405h30 q72 0 72 -61q0 -66 -74 -66h-202q-70 0 -70 59z" />
<glyph unicode="n" d="M35 59q0 66 84 66h100l105 633h-80q-84 0 -84 57q0 68 86 68h149q82 0 82 -60q0 -6 -2 -16t-2 -12q133 100 272 100q111 0 173.5 -54.5t62.5 -168.5q0 -39 -16 -133l-68 -414h80q82 0 82 -59q0 -66 -84 -66h-313q-82 0 -82 59q0 66 84 66h90l82 493q4 25 4 54 q0 49 -21.5 73.5t-83.5 24.5q-90 0 -168 -55.5t-116 -132.5q-25 -57 -89 -457h80q82 0 82 -59q0 -66 -84 -66h-323q-82 0 -82 59z" />
<glyph unicode="o" d="M184 362q0 211 154 375t348 164q147 0 248.5 -104.5t101.5 -272.5q0 -215 -154.5 -375.5t-346.5 -160.5q-145 0 -248 101t-103 273zM328 387q0 -115 63.5 -194.5t163.5 -79.5q135 0 238.5 128t103.5 277q0 111 -64.5 184.5t-166.5 73.5q-129 0 -233.5 -114.5 t-104.5 -274.5z" />
<glyph unicode="p" d="M-41 -395q0 65 82 65h2h100l181 1088h-80q-84 0 -84 57q0 68 86 68h149q29 0 46.5 -4.5t24.5 -17.5t8 -23.5t1 -34.5q127 92 264 92q143 0 241.5 -105.5t98.5 -273.5q0 -213 -151.5 -370.5t-341.5 -157.5q-131 0 -230 110l-69 -428h80q82 0 82 -59q0 -66 -84 -66h-324 q-82 1 -82 60zM399 342q0 -90 45 -156q46 -73 134 -73h2q135 0 246.5 120.5t111.5 282.5q0 111 -58.5 182.5t-152.5 71.5q-86 0 -165 -53t-120 -135q-6 -12 -17 -71.5t-18.5 -112t-7.5 -56.5z" />
<glyph unicode="q" d="M150 371q0 211 156.5 367.5t355.5 156.5q154 0 241 -119q8 53 14.5 72.5t21.5 33t48 13.5q70 0 70 -59q0 -10 -6 -43l-187 -1123h88q84 0 84 -59q0 -66 -84 -66h-342q-84 0 -84 60q0 65 83 65h3h109l72 432q-136 -114 -282 -114h-3q-154 0 -256 107.5t-102 275.5z M291 371q0 -117 64.5 -187.5t162.5 -70.5t184 69.5t129 173.5q8 18 19.5 91t11.5 85q0 51 -14 100.5t-61.5 93.5t-118.5 44q-143 0 -260 -119.5t-117 -279.5z" />
<glyph unicode="r" d="M74 59q0 66 86 66h174l104 633h-155q-82 0 -82 59q0 66 84 66h225q82 0 82 -60l-12 -86q158 158 362 158q20 0 41 -2t58.5 -12.5t61 -37t23.5 -67.5t-26.5 -68.5t-65.5 -27.5q-16 0 -30.5 4t-33 26.5t-18.5 59.5q-156 0 -273.5 -105.5t-152.5 -250.5q-8 -29 -49 -289h217 q82 0 82 -59q0 -66 -84 -66h-534q-84 0 -84 59z" />
<glyph unicode="s" d="M156 47q0 6 6 45t13 85t9 52q14 84 26.5 104.5t57.5 20.5q29 0 45.5 -11t19.5 -22.5t9 -39.5q27 -168 219 -168q84 0 145.5 17t89 40t44 51.5t18.5 39.5t2 20q0 41 -42 68.5t-77.5 35.5t-101.5 18q-76 12 -118 20.5t-100.5 27t-89 41t-53 59.5t-22.5 86q0 100 98.5 182 t321.5 82q139 0 217 -45q18 45 65 45q31 0 46.5 -18.5t15.5 -38.5l-25 -154q-10 -61 -22 -79.5t-58 -18.5q-70 0 -70 60q0 13 3 30q-2 18 -5 28.5t-18.5 29t-54.5 27.5t-98 9q-82 0 -143.5 -14t-91 -37t-43 -44.5t-13.5 -41.5q0 -23 16.5 -40t57.5 -29.5t64.5 -17.5 t80.5 -15q131 -20 183.5 -34t99.5 -46q102 -68 102 -174q0 -43 -18.5 -88t-61.5 -94.5t-133 -81t-213 -31.5q-164 0 -258 80q-33 -55 -45 -67.5t-39 -12.5t-44 16t-17 43z" />
<glyph unicode="t" d="M186 815q0 68 86 68h187l33 188q4 23 7 32t19.5 20.5t44.5 11.5q72 0 72 -58q0 -6 -4 -26l-29 -168h326q82 0 82 -60q0 -65 -82 -65h-2h-344l-82 -496q-6 -35 -6 -51q0 -18 2 -29.5t13 -30t40 -28.5t74 -10q27 0 59.5 6t80.5 46t60 109q6 37 22.5 50.5t49.5 13.5 q72 0 72 -57q0 -113 -102.5 -203t-254.5 -90q-109 0 -183.5 54t-74.5 169q0 29 6 63l80 484h-168q-84 0 -84 57z" />
<glyph unicode="u" d="M160 815q0 68 86 68h149q82 0 82 -60q0 -4 -4 -29.5t-11 -64.5t-9 -57l-25 -148q-6 -29 -14 -86t-15 -86q-25 -160 -24 -162q0 -16 3 -27t15.5 -24.5t42 -19.5t76.5 -6q94 0 165 46t95 107q10 29 86 492h-80q-84 0 -84 57q0 68 86 68h150q82 0 82 -60q0 -10 -6 -43 l-109 -655h80q82 0 82 -59q0 -66 -84 -66h-150q-78 0 -84 59q-103 -71 -239 -71h-4q-264 0 -265 200q0 27 7 62l84 508h-80q-84 0 -84 57z" />
<glyph unicode="v" d="M184 817q0 66 84 66h240q82 0 82 -60q0 -65 -82 -65h-2h-66l113 -660l334 660h-47q-84 0 -84 57q0 68 84 68h239q84 0 84 -58q0 -67 -84 -67h-2h-69l-357 -703q-14 -29 -35.5 -44t-37 -17t-41.5 -2q-31 0 -45.5 2t-31 19.5t-22.5 49.5l-119 695h-53q-82 0 -82 59z" />
<glyph unicode="w" d="M168 817q0 66 84 66h244q84 0 84 -58q0 -67 -84 -67h-2h-115q4 -74 4 -266l2 -277q0 -12 -1 -35.5t-1 -34.5h2l102 232q51 106 72 129.5t70 23.5q51 0 64.5 -25.5t27.5 -139.5q18 -150 18 -218h2l205 611h-96q-82 0 -82 59q0 66 84 66h244q84 0 84 -58q0 -33 -17.5 -48 t-37 -17t-62.5 -2l-240 -697q-25 -69 -98 -69h-2q-57 0 -70.5 21.5t-25.5 107.5q-20 164 -21 225v35h-2q-14 -53 -77.5 -196.5t-80.5 -159.5q-29 -33 -92 -33q-61 0 -72.5 22.5t-11.5 132.5q0 268 -4 398q0 16 -1 101t-3 112q-29 0 -45 2t-32.5 16t-16.5 41z" />
<glyph unicode="x" d="M66 57q0 68 84 68h92l309 330l-191 303h-73q-82 0 -82 59q0 66 84 66h239q82 0 82 -60q0 -45 -25.5 -55t-82.5 -10l121 -207l186 207q-20 0 -31.5 1t-28 6t-24.5 18.5t-8 33.5q0 66 86 66h237q84 0 84 -58q0 -67 -84 -67h-2h-90l-284 -303l206 -330h74q82 0 82 -57 q0 -31 -16.5 -47.5t-29.5 -18.5t-38 -2h-240q-81 0 -81 58q0 46 25.5 56.5t88.5 10.5l-141 252l-217 -252q29 0 45 -2t33.5 -15.5t17.5 -39.5q0 -68 -86 -68h-237q-84 0 -84 57z" />
<glyph unicode="y" d="M37 -326q0 61 33.5 89t70.5 28q41 0 59.5 -21.5t18.5 -50.5q0 -33 -20 -61q111 6 194 135q14 23 60.5 113t46.5 96t-6 29l-168 727h-54q-84 0 -84 59q0 66 84 66h240q84 0 84 -58q0 -67 -84 -67h-2h-59l110 -506q10 -51 19 -111l61 127l244 490h-45q-84 0 -84 59 q0 66 84 66h239q84 0 84 -58q0 -67 -84 -67h-2h-69l-478 -936q-55 -111 -147 -200t-203 -89q-63 0 -103 39t-40 102z" />
<glyph unicode="z" d="M76 49q0 51 41 86l762 623h-510q-14 -94 -26.5 -115.5t-57.5 -21.5q-72 0 -72 59q0 6 10 64.5t10 66.5q8 47 25.5 59.5t63.5 12.5h706q23 0 35 -2t25.5 -13.5t13.5 -33.5q0 -51 -45 -89l-758 -620h553q16 100 18 108q10 53 70 54q72 0 72 -58q0 -4 -25 -145 q-8 -53 -22.5 -68.5t-65.5 -15.5h-747q-76 0 -76 49z" />
<glyph unicode="{" d="M219 623q0 66 74 65h8q246 4 293 111q8 18 39 207.5t41 220.5q68 190 440 194q70 0 70 -59q0 -57 -47 -66l-52 -2q-49 -2 -98 -8t-101 -28.5t-71 -59.5q-6 -12 -67 -377q-10 -74 -45 -119t-109 -81q90 -55 90 -158q0 -16 -61 -385q-4 -37 0 -49q29 -74 243 -74 q74 0 74 -59q0 -66 -72 -66q-393 4 -393 213q0 31 32 209t32 217q0 10 -2 14q-16 39 -77 57.5t-129.5 21.5t-72.5 5q-39 17 -39 56z" />
<glyph unicode="|" d="M449 -98q0 12 4 37l233 1392l2 10t3 16.5t5 17.5t9.5 17.5t12.5 13.5t17 11t25 4q29 0 50 -20.5t21 -50.5q0 -8 -4 -29l-235 -1413q-10 -78 -72 -78q-29 0 -50 20.5t-21 51.5z" />
<glyph unicode="}" d="M96 -111q0 53 49 64l52 2q49 4 98 10t102.5 28.5t71.5 59.5q10 25 68 377q10 59 39.5 104.5t52 60.5t59.5 36q-90 57 -90 155q0 16 61 388q4 37 0 49q-31 72 -243 71q-74 0 -74 62q0 66 74 65q391 0 391 -215q0 -31 -31 -208t-31 -216v-14q31 -76 246 -80q70 0 70 -59 q0 -68 -72 -68h-6q-291 -4 -307 -160v-6q-57 -342 -68 -375q-68 -190 -440 -190q-72 2 -72 59z" />
<glyph unicode="~" d="M326 1069q0 23 34 61q125 121 230 121q72 0 151.5 -54t118.5 -54q51 0 114.5 54t84 54t42 -20.5t21.5 -44.5q0 -27 -30 -58q-123 -123 -236 -122q-68 0 -153 54t-119 54q-47 0 -110.5 -54t-84.5 -54q-23 0 -43 18t-20 45z" />
<glyph unicode="&#xa0;" />
<glyph unicode="&#xa1;" d="M348 -365q0 10 12 78l125 604q12 66 72 66h64q72 0 71 -64q0 -12 -4 -36l-80 -621q-6 -43 -23.5 -72.5t-41 -43t-42 -18.5t-34.5 -5q-47 0 -83 31.5t-36 80.5zM518 657q0 55 42 97.5t99 42.5q51 0 84 -35t33 -84q0 -53 -41 -95t-98 -42q-51 0 -85 34.5t-34 81.5z" />
<glyph unicode="&#xa2;" d="M158 385q0 188 152.5 338.5t371.5 173.5q20 143 33.5 180t56.5 37q31 0 46.5 -18.5t15.5 -34.5q0 -12 -25 -162q190 -8 254 -47q51 -35 51 -94q0 -43 -27.5 -73t-68.5 -30q-35 0 -60.5 23.5t-25.5 64.5q0 2 1 8.5t1 10.5q-45 6 -146 10l-108 -653q84 10 136 37.5 t67.5 54.5t39 48.5t56.5 21.5h4q35 0 51.5 -17.5t16.5 -40.5q0 -12 -11.5 -35.5t-41 -56.5t-71.5 -62.5t-114 -52t-156 -26.5q-18 -143 -32.5 -180t-57.5 -37q-61 0 -61 59q0 8 3 25.5t9 57.5t12 79q-152 18 -262 123.5t-110 267.5zM301 385q0 -102 70.5 -174t181.5 -90 l106 645q-162 -31 -260 -144.5t-98 -236.5z" />
<glyph unicode="&#xa3;" d="M100 98q0 61 55.5 106.5t137.5 45.5q37 0 82 -10l18 55l47 268h-63q-80 0 -80 60q0 66 78 65h86q29 213 55 307q37 127 128 200t185 73q102 0 157.5 -77t55.5 -185q0 -158 -102 -158q-37 0 -61.5 23.5t-24.5 60.5q0 49 45 82q-4 127 -72 127q-53 0 -103 -53.5t-71 -129.5 q-16 -72 -47 -270h109q76 0 76 -59q0 -63 -70 -66h-135q-39 -233 -48.5 -276t-31.5 -94q6 -2 29.5 -13.5t43 -18.5t46 -17.5t50 -15.5t42.5 -5q39 0 62.5 31.5t35.5 76.5t14 48q18 29 66 28q68 0 68 -59q0 -68 -68 -163t-184 -95q-39 0 -86 12t-75 22.5t-76 33t-50 22.5 q-90 -90 -203 -90q-53 0 -87 29.5t-34 78.5z" />
<glyph unicode="&#xa4;" d="M-106 -6q0 29 26.5 56.5t126.5 111.5q45 37 72 59q-70 127 -70 262q0 248 189 449l-127 151q-25 29 -25 58q0 31 21.5 50t48.5 19h6q12 0 25.5 -8t53.5 -51t103 -127q188 121 377 121q199 0 334 -121h2l186 160q33 27 60 26q33 0 51 -23.5t18 -45.5q0 -8 -2 -15.5 t-4 -13.5t-9 -15.5t-14.5 -15.5t-22.5 -19t-27.5 -24.5t-38 -33t-48.5 -39.5q-18 -16 -59 -50q72 -139 72 -266t-53.5 -244.5t-135.5 -201.5q18 -23 37.5 -46.5t32 -38t26 -29.5t20.5 -24.5t14 -19.5l10.5 -15t6.5 -12.5t4 -12.5t1 -11q0 -33 -22.5 -52.5t-47.5 -19.5 q-8 0 -13 1t-12.5 4t-12.5 6.5t-14 12.5t-16.5 17t-20.5 24.5t-25.5 32t-34 41t-41.5 50.5q-164 -121 -373 -121q-201 0 -336 121h-2l-182 -156q-37 -33 -64 -33q-29 0 -50 20.5t-21 51.5zM193 483q0 -156 101 -254t255 -98q203 0 364.5 156.5t161.5 363.5 q0 156 -101.5 254.5t-254.5 98.5q-207 0 -366.5 -160t-159.5 -361z" />
<glyph unicode="&#xa5;" d="M104 387q0 12 5.5 24.5t24 26t50.5 13.5h357l4 51q-10 45 -39 131h-273q-76 0 -75 63q0 61 84 62h225l-115 366h-43q-74 0 -73 60q0 68 73 67h234q41 0 57 -19.5t16 -39.5q0 -68 -75 -68h-31l111 -366h84l231 366h-8q-76 0 -76 60q0 14 4 27.5t22.5 26.5t47.5 13h235 q72 0 72 -61q0 -66 -72 -66h-65l-238 -366h207q82 0 82 -64q0 -61 -82 -61h-289l-69 -111l-13 -22l-12 -49h330q84 0 84 -66q0 -12 -4.5 -23.5t-22.5 -24.5t-49 -13h-358l-33 -197h49q74 0 74 -61q0 -66 -70 -66h-266q-74 0 -74 59q0 68 72 68h71l33 197h-348 q-31 2 -48.5 20t-17.5 43z" />
<glyph unicode="&#xa6;" d="M449 -98q0 14 2 22l90 533q0 2 2 10t3 14t5 16.5t9 17.5t12.5 14.5t17.5 10.5t24 3q27 0 48.5 -19.5t21.5 -54.5q0 -14 -90 -553q-10 -86 -74 -86q-29 0 -50 20.5t-21 51.5zM596 782q0 12 90 553q10 86 76 86q29 0 49 -20.5t20 -50.5q0 -14 -90 -555q-10 -84 -75 -84 q-29 0 -49.5 20t-20.5 51z" />
<glyph unicode="&#xa7;" d="M164 -231q0 100 76 100q29 0 49 -19.5t20 -48.5q0 -2 -1 -10t-1 -16q0 -51 45 -83t117 -32q115 0 206 66.5t91 156.5q0 57 -48 95t-150.5 74t-121.5 44q-215 96 -215 277q0 84 54.5 171t160.5 136q-125 94 -124 227q0 147 126.5 251t288.5 104q129 0 216 -64.5t87 -169.5 q0 -55 -23.5 -77.5t-51.5 -22.5q-31 0 -50.5 19.5t-19.5 47.5l2 9v16q0 59 -50 87t-114 28q-123 0 -209 -70t-86 -154q0 -55 53.5 -97t176.5 -81q305 -98 305 -309q0 -82 -51.5 -169t-163.5 -140v-2q125 -90 125 -224q0 -139 -122 -246.5t-294 -107.5q-129 0 -216 65 t-87 169zM348 379q0 -53 59.5 -99.5t115 -64.5t73.5 -18q74 0 167 64.5t93 156.5q0 57 -61.5 102t-122.5 62l-64 16q-76 0 -168 -62.5t-92 -156.5z" />
<glyph unicode="&#xa8;" d="M416 1141q0 45 34.5 77.5t75.5 32.5q39 0 68 -27.5t29 -68.5q0 -45 -35 -76.5t-76 -31.5q-37 0 -66.5 26.5t-29.5 67.5zM834 1141q0 41 32.5 75.5t77.5 34.5q39 0 67.5 -27.5t28.5 -68.5q0 -45 -34.5 -76.5t-75.5 -31.5t-68.5 27.5t-27.5 66.5z" />
<glyph unicode="&#xa9;" d="M-90 270q0 297 121 569.5t319.5 438.5t415.5 166q250 0 405.5 -214t155.5 -534q0 -293 -120 -565t-319.5 -440t-416.5 -168q-250 0 -405.5 214t-155.5 533zM53 270q0 -260 117 -433t301 -173q170 0 336 142.5t272.5 384t106.5 505.5q0 260 -117 433.5t-303 173.5 q-170 0 -335 -142.5t-271.5 -384.5t-106.5 -506zM221 352q0 213 135.5 380t309.5 167q100 0 176 -57h2q47 57 80 57q25 0 43 -16.5t18 -42.5q0 -10 -19.5 -123t-23.5 -123q-16 -41 -67.5 -41t-65.5 35q-2 6 -4 45t-19.5 74.5t-58.5 54.5q-20 10 -51 10q-113 0 -212 -129 t-99 -293q0 -106 50 -176t132 -70q61 0 116.5 39t73.5 93l4 14q4 16 7.5 22.5t11.5 17.5t20.5 15t28.5 4h6q70 0 70 -61q0 -88 -102.5 -179.5t-247.5 -91.5q-139 0 -226.5 107.5t-87.5 267.5z" />
<glyph unicode="&#xaa;" d="M35 506q0 53 55 61h791l4 2h4q78 0 78 -65q0 -12 -4.5 -23.5t-23.5 -25t-52 -13.5h-776q-43 2 -59.5 23t-16.5 41zM160 895q0 96 120.5 143t448.5 54q8 45 8 71q0 55 -40 102.5t-132 47.5q-88 0 -98 -10q2 -55 -29.5 -82t-66.5 -27t-60.5 24.5t-25.5 61.5q0 49 34.5 89 t106.5 56q66 14 143 15q147 0 229.5 -82t82.5 -197q0 -27 -50 -317q55 -6 117 -6h31q70 0 70 -60q0 -68 -76 -67h-39q-92 0 -144.5 8t-66.5 18.5t-31 30.5q-111 -68 -262 -68q-121 0 -195.5 53.5t-74.5 141.5zM305 891q-2 -12 10.5 -26.5t47 -27t83.5 -12.5q78 0 158 33 t103 111q-104 0 -254 -18.5t-148 -59.5z" />
<glyph unicode="&#xab;" d="M164 451q0 25 41 59l465 369q29 20 51 20q25 0 43 -16.5t18 -40.5q0 -31 -51 -70l-414 -328v-2q37 -37 301 -323q33 -33 33 -62q0 -25 -18.5 -41t-42.5 -16q-10 0 -18.5 2t-16.5 8t-12 9.5t-12.5 12.5t-10.5 11q-94 100 -213 229q-106 113 -124.5 137t-18.5 42zM432 451 q0 27 41 59l465 369q29 20 51 20q25 0 43.5 -16.5t18.5 -40.5q0 -33 -50 -70l-415 -328v-2q37 -37 301 -323q35 -35 35 -62q0 -25 -19.5 -41t-44.5 -16q-10 0 -18.5 2t-16.5 8t-12 9.5t-12 12.5t-11 11q-334 360 -342 371q-14 21 -14 37z" />
<glyph unicode="&#xac;" d="M199 666q0 14 5 28.5t25.5 28.5t53.5 14h723q51 0 69.5 -23.5t18.5 -48t-82 -503.5q-16 -86 -76 -86q-29 0 -49.5 20.5t-20.5 50.5q0 8 17.5 120t36.5 220l18 107h-655q-47 0 -65.5 23.5t-18.5 48.5z" />
<glyph unicode="&#xad;" d="M430 436q0 68 74 68h211q74 0 73 -60q0 -66 -75 -65h-209q-74 0 -74 57z" />
<glyph unicode="&#xae;" d="M-90 270q0 297 121 569.5t319.5 438.5t415.5 166q250 0 405.5 -214t155.5 -534q0 -293 -120 -565t-319.5 -440t-416.5 -168q-250 0 -405.5 214t-155.5 533zM53 270q0 -260 117 -433t301 -173q170 0 336 142.5t272.5 384t106.5 505.5q0 260 -117 433.5t-303 173.5 q-170 0 -335 -142.5t-271.5 -384.5t-106.5 -506zM123 59q0 68 78 68h57l102 623h-38q-74 0 -74 59q0 66 78 65h264q6 0 19.5 1.5t19.5 1.5q158 0 230.5 -69t72.5 -153q0 -66 -43 -127t-115 -98q51 -61 51 -123q0 -25 -11 -84t-11 -80q0 -39 20 -39q12 0 31 39q4 8 10 32 t11.5 35t19.5 21.5t39 10.5h4q72 0 72 -60q0 -55 -50.5 -130t-138.5 -75q-70 0 -116 46.5t-46 123.5q0 25 10.5 76t10.5 72q0 80 -125 80h-113l-41 -248h39q74 0 74 -61q0 -66 -74 -66h-243q-74 0 -74 59zM465 502h78q125 0 184 43t59 94q-2 43 -48 77t-144 34h-88z" />
<glyph unicode="&#xaf;" d="M348 1204q0 14 4 28.5t22.5 28t49.5 13.5h629q72 0 71 -62q0 -68 -73 -67h-633q-70 2 -70 59z" />
<glyph unicode="&#xb0;" d="M383 905q0 133 103.5 239.5t244.5 106.5q115 0 192.5 -75.5t77.5 -192.5q0 -137 -104 -241.5t-244 -104.5q-115 0 -192.5 75.5t-77.5 192.5zM526 905q0 -57 35 -91t94 -34q80 0 142.5 63.5t62.5 139.5q0 57 -36 91t-93 34q-80 0 -142.5 -63.5t-62.5 -139.5z" />
<glyph unicode="&#xb1;" d="M135 352q0 72 88 72h312l40 246h-274q-29 0 -43 2q-57 12 -57 69q0 14 5 28.5t25.5 29t53.5 14.5h315q0 6 51 313q10 74 74 74q27 0 48.5 -20.5t21.5 -51.5q0 -25 -50 -315h273q29 0 43 -2q25 -4 42 -23.5t17 -46.5q0 -14 -5 -28.5t-25.5 -28.5t-55.5 -14h-313l-41 -246 h281q94 0 94 -71.5t-84 -71.5h-750q-49 0 -67.5 23t-18.5 48z" />
<glyph unicode="&#xb2;" d="M236 686q0 16 6 28.5t24.5 26t43 25.5t73.5 33.5t103.5 44t143.5 62.5t183 85q193 90 193 201q0 127 -299 127q-129 0 -199 -33q4 -10 4 -33q0 -41 -27.5 -68.5t-68.5 -27.5q-37 0 -61.5 23.5t-24.5 60.5q0 16 5 35.5t21.5 51.5t57.5 58.5t102 40.5q70 16 215 17 q127 0 215 -24.5t129 -65.5t57.5 -80t16.5 -82q0 -47 -11.5 -86t-44 -74t-58 -58.5t-89 -56t-99.5 -49t-128 -56.5t-137 -60h352q0 2 2 18t4 22.5t7 19.5t12.5 19.5t20.5 11.5t30 5h8q29 0 47 -16.5t18 -43.5q0 -23 -14 -100q-8 -63 -76 -63h-692q-33 0 -49 19t-16 42z" />
<glyph unicode="&#xb3;" d="M229 774q0 47 29 75t70 28q35 0 60.5 -24t25.5 -60q0 -18 -6 -35q63 -16 245 -17q141 0 230.5 45t89.5 95q0 8 -5 19t-22.5 26.5t-45.5 29t-79 22.5t-116 9h-56q-72 0 -71 62q0 55 45 63q4 2 84.5 5t149.5 26.5t99 75.5q10 16 11 28q0 29 -55.5 50.5t-129.5 21.5 q-94 0 -167.5 -31t-71.5 -57q4 -16 4 -35q0 -45 -29 -71.5t-67 -26.5q-41 0 -62.5 24.5t-21.5 63.5q0 100 113.5 179t299.5 79q145 0 238.5 -52.5t93.5 -138.5q0 -123 -135 -196v-2q141 -66 141 -176q0 -115 -135 -190t-319 -75h-74q-361 0 -361 160z" />
<glyph unicode="&#xb4;" d="M602 1118q0 18 10.5 32.5t21.5 20t34 15.5q303 123 319 123q31 0 50.5 -20.5t19.5 -49.5q0 -37 -32 -56.5t-196 -84.5q-76 -31 -120 -49q-29 -12 -43 -13q-33 0 -48.5 27.5t-15.5 54.5z" />
<glyph unicode="&#xb5;" d="M-41 -395q0 39 33 59q12 8 55 8h96l181 1084h-88q-74 0 -74 59q0 66 74 66h167q74 0 74 -62q0 -18 -2 -28l-94 -560q-4 -29 -4 -41q0 -76 139 -75q92 0 163 46t97 111q6 18 21.5 105.5t33 204t29.5 174.5h-76q-8 -2 -16 -2q-33 0 -51.5 16t-18.5 45q0 27 17.5 46.5 t50.5 19.5h174q76 0 76 -54q0 -25 -18.5 -131t-48 -276t-48.5 -293h90q72 0 72 -59q0 -68 -72 -68h-172q-63 0 -74 59q-113 -70 -243 -69q-92 0 -156 24l-57 -342h80q82 0 82 -61q0 -66 -76 -66h-342q-74 1 -74 60z" />
<glyph unicode="&#xb6;" d="M221 721q0 199 149.5 364.5t372.5 165.5h392q49 0 67.5 -23.5t18.5 -47.5q0 -72 -93 -72h-65l-238 -1421h45q88 0 88 -70q0 -14 -4 -27.5t-24.5 -29t-52.5 -15.5h-535q-33 0 -53.5 15.5t-24.5 29t-4 27.5q0 70 92 70h64l108 649q-135 27 -219 134.5t-84 250.5zM561 -313 h121l236 1421h-121z" />
<glyph unicode="&#xb7;" d="M508 442q0 45 35 77t75 32q39 0 68 -26.5t29 -67.5q0 -45 -35 -78t-76 -33t-68.5 29.5t-27.5 66.5z" />
<glyph unicode="&#xb8;" d="M203 -367q0 53 47 64q4 0 71.5 1t131 6t120 28.5t56.5 64.5q0 51 -92 64q-2 0 -11.5 1t-15.5 1t-16.5 3t-16.5 7t-13 10t-10 16.5t-3 24.5q0 8 2 20.5t7 39t9 53t8 39t20.5 27t43.5 14.5h6q68 0 67 -64q0 -25 -8 -73l10 -5q10 -2 24.5 -7t32 -13t36 -22.5t33 -32 t23.5 -44t9 -55.5q0 -150 -182 -200q-96 -27 -307 -27h-9q-73 0 -73 59z" />
<glyph unicode="&#xb9;" d="M315 686q0 66 78 66h230l73 436q-123 -82 -243 -82q-74 0 -74 59q0 43 30.5 57.5t78 14.5t122 41t142.5 129q29 37 61 37q23 0 40 -14.5t19 -36.5q0 -16 -4 -45l-100 -596h182q70 0 70 -60q0 -66 -70 -67h-565q-70 0 -70 61z" />
<glyph unicode="&#xba;" d="M35 506q0 53 55 61q14 2 43 2h756q78 0 78 -65q0 -12 -4.5 -23.5t-23.5 -25t-52 -13.5h-776q-43 2 -59.5 23t-16.5 41zM150 1018q0 164 152.5 292t354.5 128q162 0 271.5 -90.5t109.5 -231.5q0 -166 -153.5 -291t-352.5 -125q-160 0 -271 89.5t-111 228.5zM297 1047 q0 -96 74.5 -159t183.5 -63q133 0 237.5 87t104.5 198q0 88 -76 145.5t-184 57.5q-139 0 -239.5 -80t-100.5 -186z" />
<glyph unicode="&#xbb;" d="M172 59q0 31 51 70q397 313 414 326q-311 338 -322 348q-14 20 -14 39q0 25 17.5 41t46.5 16q10 0 18 -2t16.5 -8t12.5 -9t12 -12.5t10 -11.5q68 -72 166 -178q141 -152 164.5 -180.5t23.5 -48.5q0 -29 -36 -58l-447 -354q-2 -2 -12 -10.5t-16.5 -12.5t-18.5 -9t-25 -5 q-25 0 -43 18t-18 41zM440 59q0 31 52 70q397 313 413 326q-309 334 -321 352q-12 16 -13 35q0 25 17.5 41t46.5 16q12 0 23.5 -5t16.5 -9t15 -15.5t12 -13.5q94 -100 213 -229q106 -113 125 -136.5t19 -41.5q0 -27 -39 -58l-447 -354q-2 -2 -12 -10.5t-16 -12.5t-18.5 -9 t-24.5 -5q-27 0 -44.5 18t-17.5 41z" />
<glyph unicode="&#xbc;" d="M33 -197q0 51 45 97l401 342q4 4 12.5 11t13.5 11t13 10.5t15.5 9.5t18.5 7t24.5 5t27.5 1h80h6q23 0 36 -1t26.5 -12.5t13.5 -33.5q0 -25 -9 -84.5t-25.5 -149.5t-24.5 -147h192q74 0 74 -59q0 -66 -72 -66h-215v-2l-12 -70h153q70 0 70 -61q0 -63 -68 -66h-442 q-76 0 -76 60q0 25 16.5 46t57.5 21h172l12 72h-458q-78 0 -78 59zM76 485q0 70 92 70h889q43 0 57 -6q43 -20 43 -66q0 -14 -5 -27.5t-23.5 -27.5t-51.5 -14h-917q-47 0 -65.5 23t-18.5 48zM217 -131h375l61 373h-2zM328 758q0 68 78 67h229l67 404q-123 -55 -239 -55 q-74 0 -74 59q0 49 41 63l62 4q59 4 126.5 29t129.5 80q39 35 63 35q59 0 59 -66q0 -8 -4 -28l-86 -525h181q72 0 71 -61q0 -66 -74 -68h-555q-75 1 -75 62z" />
<glyph unicode="&#xbd;" d="M55 -395q0 16 4 28.5t15.5 21.5t17.5 13t21.5 10.5t17.5 6.5l399 163q10 4 40 16.5t44.5 18.5t42 18.5t43 21.5t37 22.5t33.5 26t24.5 28.5t17.5 33.5t5 36.5q0 96 -280 96h-56q-111 0 -155 -12q2 -55 -30 -82t-69 -27q-39 0 -61.5 24.5t-22.5 55.5q0 168 355 168h41 q84 0 146.5 -7t132 -27.5t107.5 -68t38 -118.5q0 -45 -12.5 -83t-44.5 -71t-59.5 -55.5t-86 -50t-97 -44t-117.5 -47t-124 -49.5h332q0 2 3 22.5t5 28t9 21.5t21.5 19.5t34.5 5.5h9q29 0 47 -15.5t18 -42.5q0 -66 -20 -127q-14 -39 -72 -39h-688q-35 0 -50.5 20t-15.5 40z M76 485q0 70 92 70h889q43 0 57 -6q43 -20 43 -66q0 -14 -5 -27.5t-23.5 -27.5t-51.5 -14h-917q-47 0 -65.5 23t-18.5 48zM328 758q0 68 78 67h229l67 404q-123 -55 -239 -55q-74 0 -74 59q0 49 41 63l62 4q59 4 126.5 29t129.5 80q39 35 63 35q59 0 59 -66q0 -8 -4 -28 l-86 -525h181q72 0 71 -61q0 -66 -74 -68h-555q-75 1 -75 62z" />
<glyph unicode="&#xbe;" d="M33 -197q0 51 45 97l401 342q4 4 12.5 11t13.5 11t13 10.5t15.5 9.5t18.5 7t24.5 5t27.5 1h80q27 0 39 -1t27.5 -12.5t15.5 -33.5q0 -25 -10.5 -85.5t-25.5 -147.5t-23 -148h192q74 0 74 -59q0 -66 -72 -66h-215v-2l-12 -70h153q70 0 70 -61q0 -63 -68 -66h-442 q-76 0 -76 60q0 25 16.5 46t57.5 21h172l12 72h-458q-78 0 -78 59zM76 485q0 70 92 70h889q43 0 57 -6q43 -20 43 -66q0 -14 -5 -27.5t-23.5 -27.5t-51.5 -14h-917q-47 0 -65.5 23t-18.5 48zM217 -131h375l61 373h-2zM240 829q0 45 28.5 74t67.5 29q35 0 60.5 -23.5 t25.5 -62.5q0 -8 -4 -29q68 -16 207 -16h45q92 0 168.5 22.5t111.5 51t29 53.5q-2 14 -26.5 32.5t-88 36t-151.5 17.5h-62q-70 0 -69 61q0 63 63 66q4 0 45 3t63.5 5t63.5 9t65.5 17.5t48 29t34.5 40.5q2 2 2 8q0 27 -59.5 46.5t-139.5 19.5q-147 0 -213 -27q4 -20 4 -30 q0 -39 -28.5 -68t-67.5 -29q-37 0 -61.5 24.5t-24.5 61.5q0 55 41 103.5t114.5 69t229.5 20.5h2q188 0 269 -55.5t81 -124.5q0 -51 -30.5 -97.5t-61.5 -64.5l-31 -21q133 -61 133 -159q0 -109 -133 -178.5t-321 -69.5l-37 2h-58q-53 0 -78.5 2t-84 10t-89 22.5t-57 45 t-26.5 73.5z" />
<glyph unicode="&#xbf;" d="M88 -238q0 100 78 175q10 10 94 67t135 125q43 57 62.5 117.5t20.5 95.5t20.5 57.5t66.5 22.5q82 0 82 -64q0 -18 -6 -43q-8 -47 -16.5 -77.5t-37 -93t-92 -125t-155.5 -121.5l-10 -7q-10 -6 -18.5 -11t-20.5 -14t-21.5 -19.5t-18.5 -22.5t-14.5 -28.5t-5.5 -33.5 q0 -102 209 -102q203 0 299 80q-10 20 -10 43q0 39 27.5 67.5t68.5 28.5q35 0 60.5 -23.5t25.5 -60.5q0 -43 -22.5 -85t-71.5 -83t-147.5 -66.5t-231.5 -25.5h-4q-193 0 -269.5 68.5t-76.5 158.5zM518 686q0 45 34 77t75 32q37 0 66.5 -27t29.5 -68q0 -45 -34 -76.5 t-75 -31.5q-37 0 -66.5 26.5t-29.5 67.5z" />
<glyph unicode="&#xc0;" d="M66 57q0 68 84 68h49l430 1083q27 68 110 68h19q53 0 68.5 -16.5t19.5 -61.5l69 -1073q41 0 59.5 -2t36 -15.5t17.5 -39.5q0 -68 -84 -68h-217q-84 0 -84 59q0 66 86 66h43l-14 213h-330l-84 -213q37 0 55.5 -2t35 -15.5t16.5 -41.5q0 -66 -84 -66h-217q-84 0 -84 57z M477 463h273l-27 483q-2 25 -2 88v66h-2q-18 -63 -78 -215zM499 1579q0 31 22.5 52.5t51.5 21.5q12 0 299 -102q57 -20 57 -62q0 -27 -20 -55.5t-49 -28.5h-4q-8 0 -293 103q-64 22 -64 71z" />
<glyph unicode="&#xc1;" d="M66 57q0 68 84 68h49l430 1083q27 68 110 68h19q53 0 68.5 -16.5t19.5 -61.5l69 -1073q41 0 59.5 -2t36 -15.5t17.5 -39.5q0 -68 -84 -68h-217q-84 0 -84 59q0 66 86 66h43l-14 213h-330l-84 -213q37 0 55.5 -2t35 -15.5t16.5 -41.5q0 -66 -84 -66h-217q-84 0 -84 57z M477 463h273l-27 483q-2 25 -2 88v66h-2q-18 -63 -78 -215zM662 1487q0 33 27.5 48t160.5 56q96 31 162 51q37 10 41 11q29 0 49 -21.5t20 -48.5q0 -53 -69 -76q-317 -102 -330 -102q-29 0 -45 23.5t-16 58.5z" />
<glyph unicode="&#xc2;" d="M66 57q0 68 84 68h49l430 1083q27 68 110 68h19q53 0 68.5 -16.5t19.5 -61.5l69 -1073q41 0 59.5 -2t36 -15.5t17.5 -39.5q0 -68 -84 -68h-217q-84 0 -84 59q0 66 86 66h43l-14 213h-330l-84 -213q37 0 55.5 -2t35 -15.5t16.5 -41.5q0 -66 -84 -66h-217q-84 0 -84 57z M422 1430q0 33 43 59q289 190 307 197q8 2 16 2h7q16 0 77 -50q18 -16 74 -63q63 -51 105 -86q39 -33 39 -59.5t-26 -53t-52 -26.5q-20 0 -47 21.5t-183 166.5h-2l-223 -158q-45 -31 -65 -30q-29 0 -49.5 27.5t-20.5 52.5zM477 463h273l-27 483q-2 25 -2 88v66h-2 q-18 -63 -78 -215z" />
<glyph unicode="&#xc3;" d="M66 57q0 68 84 68h49l430 1083q27 68 110 68h19q53 0 68.5 -16.5t19.5 -61.5l69 -1073q41 0 59.5 -2t36 -15.5t17.5 -39.5q0 -68 -84 -68h-217q-84 0 -84 59q0 66 86 66h43l-14 213h-330l-84 -213q37 0 55.5 -2t35 -15.5t16.5 -41.5q0 -66 -84 -66h-217q-84 0 -84 57z M367 1477q0 25 41 65q139 135 249 135q57 0 109.5 -31.5t95.5 -63.5t76 -32q49 0 125 63.5t96.5 63.5t42 -18.5t21.5 -45t-37 -63.5q-137 -137 -254 -137q-74 0 -160 64.5t-121 64.5q-51 0 -125.5 -63.5t-95.5 -63.5q-25 0 -44 19.5t-19 42.5zM477 463h273l-27 483 q-2 25 -2 88v66h-2q-18 -63 -78 -215z" />
<glyph unicode="&#xc4;" d="M66 57q0 68 84 68h49l430 1083q27 68 110 68h19q53 0 68.5 -16.5t19.5 -61.5l69 -1073q41 0 59.5 -2t36 -15.5t17.5 -39.5q0 -68 -84 -68h-217q-84 0 -84 59q0 66 86 66h43l-14 213h-330l-84 -213q37 0 55.5 -2t35 -15.5t16.5 -41.5q0 -66 -84 -66h-217q-84 0 -84 57z M477 463h273l-27 483q-2 25 -2 88v66h-2q-18 -63 -78 -215zM487 1567q0 45 35 77.5t76 32.5t68.5 -28.5t27.5 -67.5q0 -45 -34.5 -76.5t-75.5 -31.5q-39 0 -68 26.5t-29 67.5zM905 1569q0 45 35 76.5t76 31.5q39 0 67.5 -26.5t28.5 -67.5q0 -45 -35 -77.5t-76 -32.5 q-39 0 -67.5 27.5t-28.5 68.5z" />
<glyph unicode="&#xc5;" d="M68 59q0 68 71 68h60l417 1047q-104 61 -104 200q0 127 89 223.5t198 96.5q88 0 143 -62.5t55 -156.5q0 -88 -44 -163t-105 -116l65 -1001l5 -68h36q74 0 74 -61q0 -66 -74 -66h-239q-72 0 -72 59q0 68 78 68h49l-14 209h-328l-82 -209h33q72 0 72 -61q0 -66 -74 -66 h-238q-71 0 -71 59zM479 461h271l-29 534v113l-41 -123zM633 1393q0 -53 28.5 -84t69.5 -31q59 0 102.5 54t43.5 120q0 49 -28 83t-71 34q-51 0 -98 -52t-47 -124z" />
<glyph unicode="&#xc6;" d="M55 59q0 68 76 68h35l366 997h-2q-35 0 -51 19.5t-16 42.5q0 66 74 65h593q41 0 57.5 -19.5t16.5 -39.5q0 -41 -33 -205q-8 -55 -57 -55q-23 0 -40 16.5t-17 36.5q0 35 20 139h-233l-70 -413h225l2 2h5q76 0 75 -60q0 -68 -71 -67h-256l-76 -459h250q27 170 37 190 q14 33 47 33q25 0 41 -15.5t16 -39.5q0 -31 -33 -221q-6 -41 -21.5 -57.5t-53.5 -16.5h-422q-72 0 -72 59q0 68 76 68h16l41 246h-225l-90 -246h8q74 0 74 -61q0 -66 -70 -66h-168q-74 0 -74 59zM422 500h201l102 624h-74z" />
<glyph unicode="&#xc7;" d="M174 492q0 307 185.5 544.5t416.5 237.5q141 0 254 -100q6 8 15.5 24t13.5 22.5t12 17.5t13.5 16.5t13.5 10.5t15 7t17 2q27 0 44.5 -17.5t17.5 -42.5q0 -14 -51 -319q-12 -76 -72 -76h-4q-53 0 -68 39q-4 8 -4 45t-6 68q-16 74 -67.5 125t-135.5 51h-2 q-168 0 -316.5 -198.5t-148.5 -456.5q0 -168 76 -278t199 -110q106 0 197.5 72t113.5 176q14 51 49 60q8 2 21 2h6q70 0 70 -60q0 -33 -21.5 -83t-64.5 -111.5t-130.5 -112.5t-199.5 -67q80 -23 117.5 -71t37.5 -108q0 -152 -170 -202q-84 -25 -264 -25h-24 q-37 0 -52.5 18.5t-15.5 40.5q0 66 74 66h49q260 0 260 100q0 53 -82 64l-10 2q-8 0 -14.5 1t-16.5 5t-16 10t-11.5 17.5t-5.5 25.5q0 31 21 60q-162 33 -249 177.5t-87 330.5z" />
<glyph unicode="&#xc8;" d="M63 59q0 66 84 66h72l166 1001h-51q-82 0 -82 60q0 66 84 65h764q82 0 82 -59q0 -10 -6 -43l-25 -141q-4 -23 -7 -32t-10.5 -21.5t-20.5 -16.5t-36 -4q-70 0 -69 59q0 4 4 26.5t9 55.5t7 51h-500l-69 -415h266q12 74 24.5 95t57.5 21q72 0 72 -57q0 -6 -5 -27l-34 -208 q-4 -23 -9.5 -35.5t-21.5 -21.5t-43 -9q-70 0 -70 59q0 16 9 58h-267l-76 -461h545l23 143q6 33 10 46.5t20.5 24.5t45.5 11q72 0 71 -57q0 -6 -6 -44t-13 -85t-9 -53q-14 -78 -27.5 -94.5t-67.5 -16.5h-809q-82 0 -82 59zM550 1579q0 31 22.5 52.5t51.5 21.5q12 0 299 -102 q57 -20 57 -62q0 -27 -20 -55.5t-49 -28.5h-4q-8 0 -293 103q-64 22 -64 71z" />
<glyph unicode="&#xc9;" d="M63 59q0 66 84 66h72l166 1001h-51q-82 0 -82 60q0 66 84 65h764q82 0 82 -59q0 -10 -6 -43l-25 -141q-4 -23 -7 -32t-10.5 -21.5t-20.5 -16.5t-36 -4q-70 0 -69 59q0 4 4 26.5t9 55.5t7 51h-500l-69 -415h266q12 74 24.5 95t57.5 21q72 0 72 -57q0 -6 -5 -27l-34 -208 q-4 -23 -9.5 -35.5t-21.5 -21.5t-43 -9q-70 0 -70 59q0 16 9 58h-267l-76 -461h545l23 143q6 33 10 46.5t20.5 24.5t45.5 11q72 0 71 -57q0 -6 -6 -44t-13 -85t-9 -53q-14 -78 -27.5 -94.5t-67.5 -16.5h-809q-82 0 -82 59zM657 1487q0 33 30 49t161 57q94 29 158 49 q35 10 43 11q29 0 48 -21.5t19 -48.5q0 -53 -69 -76q-317 -102 -328 -102q-29 0 -45.5 23.5t-16.5 58.5z" />
<glyph unicode="&#xca;" d="M63 59q0 66 84 66h72l166 1001h-51q-82 0 -82 60q0 66 84 65h764q82 0 82 -59q0 -10 -6 -43l-25 -141q-4 -23 -7 -32t-10.5 -21.5t-20.5 -16.5t-36 -4q-70 0 -69 59q0 4 4 26.5t9 55.5t7 51h-500l-69 -415h266q12 74 24.5 95t57.5 21q72 0 72 -57q0 -6 -5 -27l-34 -208 q-4 -23 -9.5 -35.5t-21.5 -21.5t-43 -9q-70 0 -70 59q0 16 9 58h-267l-76 -461h545l23 143q6 33 10 46.5t20.5 24.5t45.5 11q72 0 71 -57q0 -6 -6 -44t-13 -85t-9 -53q-14 -78 -27.5 -94.5t-67.5 -16.5h-809q-82 0 -82 59zM442 1430q0 33 43 59q289 190 308 197q8 2 16 2h6 q16 0 78 -50q18 -16 74 -63q63 -51 104 -86q39 -33 39 -59.5t-25.5 -53t-52.5 -26.5q-20 0 -47 21.5t-182 166.5h-2l-223 -158q-45 -31 -66 -30q-29 0 -49.5 27.5t-20.5 52.5z" />
<glyph unicode="&#xcb;" d="M63 59q0 66 84 66h72l166 1001h-51q-82 0 -82 60q0 66 84 65h764q82 0 82 -59q0 -10 -6 -43l-25 -141q-4 -23 -7 -32t-10.5 -21.5t-20.5 -16.5t-36 -4q-70 0 -69 59q0 4 4 26.5t9 55.5t7 51h-500l-69 -415h266q12 74 24.5 95t57.5 21q72 0 72 -57q0 -6 -5 -27l-34 -208 q-4 -23 -9.5 -35.5t-21.5 -21.5t-43 -9q-70 0 -70 59q0 16 9 58h-267l-76 -461h545l23 143q6 33 10 46.5t20.5 24.5t45.5 11q72 0 71 -57q0 -6 -6 -44t-13 -85t-9 -53q-14 -78 -27.5 -94.5t-67.5 -16.5h-809q-82 0 -82 59zM487 1567q0 47 34 78.5t77 31.5q41 0 68.5 -28.5 t27.5 -67.5q0 -45 -34.5 -76.5t-75.5 -31.5q-39 0 -68 26.5t-29 67.5zM905 1569q0 45 35 76.5t76 31.5q37 0 66.5 -26.5t29.5 -67.5q0 -47 -34 -78.5t-77 -31.5q-39 0 -67.5 27.5t-28.5 68.5z" />
<glyph unicode="&#xcc;" d="M172 59q0 66 84 66h231l166 1001h-211q-82 0 -82 60q0 66 84 65h584q84 0 84 -59q0 -66 -84 -66h-231l-166 -1001h211q82 0 82 -59q0 -66 -84 -66h-586q-82 0 -82 59zM639 1579q0 31 22.5 52.5t51.5 21.5q12 0 299 -102q57 -20 57 -62q0 -27 -20 -55.5t-49 -28.5h-4 q-8 0 -293 103q-64 22 -64 71z" />
<glyph unicode="&#xcd;" d="M172 59q0 66 84 66h231l166 1001h-211q-82 0 -82 60q0 66 84 65h584q84 0 84 -59q0 -66 -84 -66h-231l-166 -1001h211q82 0 82 -59q0 -66 -84 -66h-586q-82 0 -82 59zM588 1487q0 33 27.5 48t160.5 56q96 31 162 51q37 10 41 11q29 0 49.5 -21.5t20.5 -48.5 q0 -53 -70 -76q-317 -102 -330 -102q-29 0 -45 23.5t-16 58.5z" />
<glyph unicode="&#xce;" d="M172 59q0 66 84 66h231l166 1001h-211q-82 0 -82 60q0 66 84 65h584q84 0 84 -59q0 -66 -84 -66h-231l-166 -1001h211q82 0 82 -59q0 -66 -84 -66h-586q-82 0 -82 59zM440 1430q0 31 45 59q289 190 308 197q8 2 16 2h4q16 0 44 -21.5t214 -177.5q37 -31 37 -59 q0 -27 -25.5 -53.5t-52.5 -26.5q-18 0 -45 21.5t-184 166.5h-2q-10 -8 -246 -172q-23 -16 -43 -16q-29 0 -49.5 27.5t-20.5 52.5z" />
<glyph unicode="&#xcf;" d="M172 59q0 66 84 66h231l166 1001h-211q-82 0 -82 60q0 66 84 65h584q84 0 84 -59q0 -66 -84 -66h-231l-166 -1001h211q82 0 82 -59q0 -66 -84 -66h-586q-82 0 -82 59zM487 1567q0 47 34 78.5t77 31.5q41 0 68.5 -28.5t27.5 -67.5q0 -45 -34.5 -76.5t-75.5 -31.5 q-39 0 -68 26.5t-29 67.5zM905 1569q0 45 35 76.5t76 31.5q37 0 66.5 -26.5t29.5 -67.5q0 -47 -34 -78.5t-77 -31.5q-39 0 -67.5 27.5t-28.5 68.5z" />
<glyph unicode="&#xd0;" d="M49 59q0 68 72 68h65l72 424h-45q-74 0 -74 59q0 68 74 68h66l75 446h-47q-72 0 -71 60q0 68 77 67h430q104 0 180 -47t114 -123.5t55.5 -154.5t17.5 -158q0 -297 -170 -532.5t-395 -235.5h-424q-72 0 -72 59zM332 127h196q178 0 307.5 189.5t129.5 426.5q0 96 -25 179.5 t-87 142.5t-153 59h-202l-74 -446h213q80 0 80 -60q0 -12 -4 -25t-21.5 -27.5t-48.5 -14.5h-242z" />
<glyph unicode="&#xd1;" d="M66 57q0 68 86 68h59l166 1001h-41q-82 0 -82 60q0 66 84 65h147q47 0 68.5 -13t32.5 -60l205 -1022h2l161 970h-41q-82 0 -82 60q0 66 84 65h218q84 0 84 -57q0 -68 -87 -68h-59l-176 -1060q-6 -45 -25.5 -55.5t-60.5 -10.5h-14q-55 0 -72.5 16.5t-26.5 59.5l-204 1020 h-3l-161 -971h39q84 0 84 -57q0 -68 -84 -68h-217q-84 0 -84 57zM367 1477q0 27 39 65q139 135 251 135q57 0 109.5 -31.5t95.5 -63.5t76 -32q49 0 125 63.5t96.5 63.5t42 -18.5t21.5 -44.5q0 -25 -39 -64q-137 -137 -252 -137q-74 0 -161 64.5t-122 64.5 q-51 0 -124.5 -63.5t-94.5 -63.5q-25 0 -44 19.5t-19 42.5z" />
<glyph unicode="&#xd2;" d="M147 84q0 137 76 573.5t113 530.5q20 51 94 68.5t295 17.5h61q168 0 245 -14.5t89.5 -33t12.5 -63.5q0 -117 -52.5 -430t-87.5 -487q-43 -197 -71 -221q-53 -47 -369 -48h-49q-168 0 -246 12.5t-94.5 31t-16.5 63.5zM303 186q0 -51 41 -67.5t207 -16.5q135 0 181 8.5 t79 30.5q39 55 103.5 447.5t64.5 482.5q0 33 -13.5 46t-68.5 21.5t-176 8.5q-129 0 -185.5 -12.5t-68.5 -27.5t-27 -67q-31 -113 -84 -444.5t-53 -409.5zM530 1579q0 31 22.5 52.5t51.5 21.5q12 0 299 -103q57 -20 58 -61q0 -27 -20.5 -55.5t-49.5 -28.5h-4q-8 0 -293 102 q-64 23 -64 72z" />
<glyph unicode="&#xd3;" d="M147 84q0 137 76 573.5t113 530.5q20 51 94 68.5t295 17.5h61q168 0 245 -14.5t89.5 -33t12.5 -63.5q0 -117 -52.5 -430t-87.5 -487q-43 -195 -73 -221q-53 -47 -367 -48h-49q-168 0 -246 12.5t-94.5 31t-16.5 63.5zM303 186q0 -51 41 -67.5t207 -16.5q135 0 181 8.5 t79 30.5q39 55 103.5 447.5t64.5 482.5q0 33 -13.5 46t-68.5 21.5t-176 8.5q-129 0 -185.5 -12.5t-68.5 -27.5t-27 -67q-31 -113 -84 -444.5t-53 -409.5zM608 1487q0 33 30 49t161 57q94 29 157 49q35 10 43 11q29 0 48.5 -21.5t19.5 -48.5q0 -53 -70 -76 q-317 -102 -327 -102q-29 0 -45.5 23.5t-16.5 58.5z" />
<glyph unicode="&#xd4;" d="M172 227q0 119 47 405t100 433q49 133 142.5 171t286.5 38q217 0 289.5 -46t72.5 -204q0 -115 -46 -394.5t-91 -414.5q-51 -150 -140.5 -194t-300.5 -44q-217 0 -288.5 47t-71.5 203zM322 288.5q0 -104.5 42 -145.5t191 -41q164 0 221.5 55.5t100.5 229.5q23 94 55.5 296 t32.5 290q0 109 -49.5 142.5t-188.5 33.5q-152 0 -210 -42t-97 -183q-27 -100 -62.5 -315.5t-35.5 -320zM442 1430q0 33 43 59q289 190 308 197q8 2 16 2h4q16 0 44 -21.5t214 -177.5q39 -33 39 -59.5t-25.5 -53t-52.5 -26.5q-20 0 -49 23.5t-180 164.5h-2q-10 -8 -246 -172 q-23 -16 -43 -16q-29 0 -49.5 27.5t-20.5 52.5z" />
<glyph unicode="&#xd5;" d="M172 227q0 119 47 405t100 433q49 133 142.5 171t286.5 38q217 0 289.5 -46t72.5 -204q0 -115 -46 -394.5t-91 -414.5q-51 -150 -140.5 -194t-300.5 -44q-217 0 -288.5 47t-71.5 203zM322 288.5q0 -104.5 42 -145.5t191 -41q164 0 221.5 55.5t100.5 229.5q23 94 55.5 296 t32.5 290q0 109 -49.5 142.5t-188.5 33.5q-152 0 -210 -42t-97 -183q-27 -100 -62.5 -315.5t-35.5 -320zM367 1477q0 25 41 65q139 135 249 135q57 0 109.5 -31.5t95.5 -63.5t76 -32q49 0 125 63.5t96.5 63.5t42 -18.5t21.5 -45t-37 -63.5q-137 -137 -254 -137 q-74 0 -160 64.5t-121 64.5q-51 0 -125.5 -63.5t-95.5 -63.5q-25 0 -44 19.5t-19 42.5z" />
<glyph unicode="&#xd6;" d="M172 227q0 119 47 405t100 433q49 133 142.5 171t286.5 38q217 0 289.5 -46t72.5 -204q0 -115 -46 -394.5t-91 -414.5q-51 -150 -140.5 -194t-300.5 -44q-217 0 -288.5 47t-71.5 203zM322 288.5q0 -104.5 42 -145.5t191 -41q164 0 221.5 55.5t100.5 229.5q23 94 55.5 296 t32.5 290q0 109 -49.5 142.5t-188.5 33.5q-152 0 -210 -42t-97 -183q-27 -100 -62.5 -315.5t-35.5 -320zM487 1567q0 47 34 78.5t77 31.5q41 0 68.5 -28.5t27.5 -67.5q0 -45 -34.5 -76.5t-75.5 -31.5q-39 0 -68 26.5t-29 67.5zM905 1569q0 45 35 76.5t76 31.5 q37 0 66.5 -26.5t29.5 -67.5q0 -47 -34 -78.5t-77 -31.5q-39 0 -67.5 27.5t-28.5 68.5z" />
<glyph unicode="&#xd7;" d="M250 352q0 27 23.5 51.5t136.5 120.5q78 66 131 111q-2 2 -160 192q-39 49 -39 74q0 27 19.5 48.5t52.5 21.5q27 -2 46 -19.5t85 -97.5q35 -41 55 -68l49 -59q59 51 144 123q102 88 124.5 104.5t43.5 16.5q35 0 53 -23.5t18 -46.5q0 -27 -30.5 -57.5t-165.5 -145.5 q-59 -49 -95 -80q184 -219 193 -237q6 -12 6 -31q0 -25 -19.5 -46t-50.5 -23q-8 0 -14 1t-13 4t-13.5 7t-16.5 14t-19.5 21.5t-25.5 32t-33.5 41t-45 55.5t-56.5 67q-6 -4 -232 -198q-53 -45 -79.5 -45t-49 20t-22.5 51z" />
<glyph unicode="&#xd8;" d="M172 227q0 180 78 576q33 164 64.5 253t91 140t129 64.5t200.5 13.5h47q14 0 105 -4q47 102 65.5 127.5t44.5 25.5q25 0 45.5 -16t20.5 -43q0 -18 -51 -123q55 -27 76.5 -74t21.5 -143q0 -121 -50 -425t-110 -439q-47 -104 -130 -143.5t-273 -39.5h-37q-76 0 -113 5 q-8 -18 -19 -41t-16.5 -34t-13.5 -26.5t-12 -21.5t-10.5 -13.5t-12.5 -10.5t-13 -5t-15 -2q-25 0 -45.5 17.5t-20.5 41.5q0 18 51 123q-55 27 -76.5 74t-21.5 143zM295 293q0 -100 43 -143l487 995q-10 0 -26.5 1t-26.5 1h-47q-78 0 -122 -5t-87 -30t-65.5 -58.5t-48 -109.5 t-42 -164t-38.5 -239q-27 -178 -27 -248zM457 106q25 -2 42 -3t21 -1h55q102 0 155.5 14.5t96.5 75t65.5 151.5t53.5 275q41 250 41 340q0 98 -41 146z" />
<glyph unicode="&#xd9;" d="M207 1186q0 66 84 65h266q82 0 82 -59q0 -66 -84 -66h-72l-121 -723q-4 -25 -4 -61q0 -111 53.5 -175.5t133.5 -64.5q100 0 191 95.5t112 224.5l117 704h-52q-82 0 -82 60q0 66 84 65h267q82 0 82 -59q0 -66 -84 -66h-72l-121 -729q-27 -160 -154.5 -290t-289.5 -130 q-137 0 -231.5 101.5t-94.5 265.5q0 41 6 78l117 704h-51q-82 1 -82 60zM550 1579q0 31 22.5 52.5t51.5 21.5q12 0 299 -102q57 -20 57 -62q0 -27 -20 -55.5t-49 -28.5h-4q-8 0 -293 103q-64 22 -64 71z" />
<glyph unicode="&#xda;" d="M207 1186q0 66 84 65h266q82 0 82 -59q0 -66 -84 -66h-72l-121 -723q-4 -25 -4 -61q0 -111 53.5 -175.5t133.5 -64.5q100 0 191 95.5t112 224.5l117 704h-52q-82 0 -82 60q0 66 84 65h267q82 0 82 -59q0 -66 -84 -66h-72l-121 -729q-27 -160 -154.5 -290t-289.5 -130 q-137 0 -231.5 101.5t-94.5 265.5q0 41 6 78l117 704h-51q-82 1 -82 60zM657 1487q0 33 30 49t161 57q94 29 158 49q35 10 43 11q29 0 48 -21.5t19 -48.5q0 -53 -69 -76q-317 -102 -328 -102q-29 0 -45.5 23.5t-16.5 58.5z" />
<glyph unicode="&#xdb;" d="M207 1186q0 66 84 65h266q82 0 82 -59q0 -66 -84 -66h-72l-121 -723q-4 -25 -4 -61q0 -111 53.5 -175.5t133.5 -64.5q100 0 191 95.5t112 224.5l117 704h-52q-82 0 -82 60q0 66 84 65h267q82 0 82 -59q0 -66 -84 -66h-72l-121 -729q-27 -160 -154.5 -290t-289.5 -130 q-137 0 -231.5 101.5t-94.5 265.5q0 41 6 78l117 704h-51q-82 1 -82 60zM442 1430q0 33 47 61q287 188 304 192q8 4 16 5q20 0 70 -39q49 -41 116 -97q84 -70 99.5 -86t15.5 -39q0 -25 -25.5 -51t-52 -26t-57.5 30q-162 147 -172 158h-2q-258 -180 -273 -186q-6 -2 -16 -2 q-29 0 -49.5 27.5t-20.5 52.5z" />
<glyph unicode="&#xdc;" d="M207 1186q0 66 84 65h266q82 0 82 -59q0 -66 -84 -66h-72l-121 -723q-4 -25 -4 -61q0 -111 53.5 -175.5t133.5 -64.5q100 0 191 95.5t112 224.5l117 704h-52q-82 0 -82 60q0 66 84 65h267q82 0 82 -59q0 -66 -84 -66h-72l-121 -729q-27 -160 -154.5 -290t-289.5 -130 q-137 0 -231.5 101.5t-94.5 265.5q0 41 6 78l117 704h-51q-82 1 -82 60zM487 1567q0 43 33 76.5t78 33.5q41 0 68.5 -28.5t27.5 -67.5q0 -43 -32.5 -75.5t-77.5 -32.5q-41 0 -69 27.5t-28 66.5zM905 1567q0 45 34 77.5t77 32.5q41 0 68.5 -28.5t27.5 -65.5q0 -45 -35 -77.5 t-76 -32.5q-39 0 -67.5 26.5t-28.5 67.5z" />
<glyph unicode="&#xdd;" d="M236 1186q0 66 83 65h213q84 0 84 -57q0 -31 -16 -47.5t-34.5 -18.5t-55.5 -2l72 -231q55 -188 61 -248h2q14 37 148 252l145 227q-84 0 -84 60q0 66 84 65h213q84 0 84 -57q0 -68 -86 -68h-53l-404 -626l-63 -375h41q84 0 84 -57q0 -68 -84 -68h-244q-84 0 -84 57 q0 68 86 68h59l64 375l-199 626h-35q-81 1 -81 60zM662 1487q0 33 27.5 48t160.5 56q96 31 162 51q37 10 43 11q29 0 48 -21.5t19 -48.5q0 -51 -69 -76q-317 -102 -330 -102q-29 0 -45 23.5t-16 58.5z" />
<glyph unicode="&#xde;" d="M72 59q0 68 78 68h92l166 997h-74q-74 0 -74 60q0 68 72 67h313q74 0 74 -59q0 -68 -84 -68h-84l-14 -86h235q160 0 241 -90t81 -209q0 -90 -46.5 -181t-154 -161.5t-254.5 -70.5h-221l-33 -199h74q74 0 73 -61q0 -66 -71 -66h-311q-78 0 -78 59zM440 451h170q57 0 86 6 q96 16 174 87.5t78 172.5q0 86 -60.5 140t-152.5 54h-219z" />
<glyph unicode="&#xdf;" d="M43 59q0 68 74 68h131l104 629h-108q-74 0 -74 59q0 63 70 66h133v2q18 154 35 196q63 182 389 183q186 0 258.5 -61.5t72.5 -141.5q0 -86 -60 -178.5t-181 -106.5q-10 -2 -26.5 -2t-25 -1t-21.5 -5t-26 -12q-66 -41 -65 -131q0 -37 16.5 -57.5t37 -25.5t57 -12.5 t57.5 -13.5q68 -25 113 -83t45 -138q0 -117 -83 -210t-233 -93q-66 0 -117 33q-23 -33 -57 -33q-25 0 -43 15t-18 40q0 16 37 229q2 20 6 31.5t20.5 24t44.5 12.5h2q35 0 51.5 -14.5t18.5 -26.5t2 -41v-27q0 -72 12.5 -95t44.5 -23q90 0 137.5 56t47.5 120q0 88 -111 112 l-12 3q-10 2 -21.5 4t-30 7t-34 13t-33.5 18.5t-32.5 27t-27 36.5t-18.5 48t-6 61q0 88 56.5 176t183.5 100h13t16 1t17.5 3t19.5 6t18.5 10.5t19.5 17.5t17.5 24.5t15.5 33t10 43.5q2 6 2 19q0 82 -192 82h-7q-227 0 -247 -127l-158 -944q-10 -66 -78 -66h-186 q-74 0 -74 59z" />
<glyph unicode="&#xe0;" d="M154 233q0 305 667 334q6 25 6 58q0 18 -5 37.5t-24.5 48t-68.5 47t-125 18.5q-86 0 -131 -10q0 -45 -22.5 -71.5t-41 -32t-32.5 -5.5q-35 0 -60.5 22.5t-25.5 61.5q0 160 313 160q94 0 166 -24.5t108.5 -57.5t59.5 -75t28 -69.5t5 -49.5l-78 -490q45 -10 106 -10 q86 0 86 -57q0 -31 -16 -47.5t-33.5 -18.5t-54.5 -2q-90 0 -139 13.5t-76 52.5q-119 -78 -309 -78q-139 0 -221 71.5t-82 173.5zM295 236q0 -55 50 -89t130 -34q123 0 209 43q51 29 66.5 56.5t25.5 86.5l25 147q-207 -4 -356.5 -60t-149.5 -150zM567 1235q0 31 22.5 52.5 t51.5 21.5h4q14 0 287 -127q53 -27 53 -64q0 -23 -21.5 -52.5t-50.5 -29.5h-2q-16 0 -284 127q-60 29 -60 72z" />
<glyph unicode="&#xe1;" d="M154 233q0 305 667 334q6 25 6 58q0 18 -5 37.5t-24.5 48t-68.5 47t-125 18.5q-86 0 -131 -10q0 -45 -22.5 -71.5t-41 -32t-32.5 -5.5q-35 0 -60.5 22.5t-25.5 61.5q0 160 313 160q94 0 166 -24.5t108.5 -57.5t59.5 -75t28 -69.5t5 -49.5l-78 -490q45 -10 106 -10 q86 0 86 -57q0 -31 -16 -47.5t-33.5 -18.5t-54.5 -2q-90 0 -139 13.5t-76 52.5q-119 -78 -309 -78q-139 0 -221 71.5t-82 173.5zM295 236q0 -55 50 -89t130 -34q123 0 209 43q51 29 66.5 56.5t25.5 86.5l25 147q-207 -4 -356.5 -60t-149.5 -150zM491 1118q0 18 10.5 32.5 t21.5 20t34 15.5q303 123 319 123q31 0 50.5 -20.5t19.5 -49.5q0 -37 -32 -56.5t-196 -84.5q-76 -31 -120 -49q-29 -12 -43 -13q-33 0 -48.5 27.5t-15.5 54.5z" />
<glyph unicode="&#xe2;" d="M154 233q0 305 667 334q6 25 6 58q0 18 -5 37.5t-24.5 48t-68.5 47t-125 18.5q-86 0 -131 -10q0 -45 -22.5 -71.5t-41 -32t-32.5 -5.5q-35 0 -60.5 22.5t-25.5 61.5q0 160 313 160q94 0 166 -24.5t108.5 -57.5t59.5 -75t28 -69.5t5 -49.5l-78 -490q45 -10 106 -10 q86 0 86 -57q0 -31 -16 -47.5t-33.5 -18.5t-54.5 -2q-90 0 -139 13.5t-76 52.5q-119 -78 -309 -78q-139 0 -221 71.5t-82 173.5zM295 236q0 -55 50 -89t130 -34q123 0 209 43q51 29 66.5 56.5t25.5 86.5l25 147q-207 -4 -356.5 -60t-149.5 -150zM338 1079q0 31 49 62 q291 172 298 175t15 3h5q16 0 129 -84q74 -55 129 -96q41 -29 41 -60q0 -27 -24 -53.5t-52 -26.5q-4 0 -8.5 1t-8.5 2.5t-9 3.5t-10 5t-13.5 9t-15.5 12t-19.5 16.5t-24.5 20.5t-30.5 25.5t-36.5 29.5q-10 8 -28.5 23.5t-29.5 23.5q-80 -51 -176 -112q-92 -59 -112 -60 q-29 0 -48.5 26.5t-19.5 53.5z" />
<glyph unicode="&#xe3;" d="M154 233q0 305 667 334q6 25 6 58q0 18 -5 37.5t-24.5 48t-68.5 47t-125 18.5q-86 0 -131 -10q0 -45 -22.5 -71.5t-41 -32t-32.5 -5.5q-35 0 -60.5 22.5t-25.5 61.5q0 160 313 160q94 0 166 -24.5t108.5 -57.5t59.5 -75t28 -69.5t5 -49.5l-78 -490q45 -10 106 -10 q86 0 86 -57q0 -31 -16 -47.5t-33.5 -18.5t-54.5 -2q-90 0 -139 13.5t-76 52.5q-119 -78 -309 -78q-139 0 -221 71.5t-82 173.5zM295 236q0 -55 50 -89t130 -34q123 0 209 43q51 29 66.5 56.5t25.5 86.5l25 147q-207 -4 -356.5 -60t-149.5 -150zM374 1071q0 29 35 57 q150 123 244 123q49 0 84 -27.5t58.5 -55t41.5 -27.5q39 2 114 55t91 53q25 0 44.5 -19.5t19.5 -46t-33 -53.5q-152 -125 -246 -124q-49 0 -85 27.5t-59.5 54t-41.5 26.5q-35 0 -112 -54t-95 -54q-20 0 -40 19t-20 46z" />
<glyph unicode="&#xe4;" d="M154 233q0 305 667 334q6 25 6 58q0 18 -5 37.5t-24.5 48t-68.5 47t-125 18.5q-86 0 -131 -10q0 -45 -22.5 -71.5t-41 -32t-32.5 -5.5q-35 0 -60.5 22.5t-25.5 61.5q0 160 313 160q94 0 166 -24.5t108.5 -57.5t59.5 -75t28 -69.5t5 -49.5l-78 -490q45 -10 106 -10 q86 0 86 -57q0 -31 -16 -47.5t-33.5 -18.5t-54.5 -2q-90 0 -139 13.5t-76 52.5q-119 -78 -309 -78q-139 0 -221 71.5t-82 173.5zM295 236q0 -55 50 -89t130 -34q123 0 209 43q51 29 66.5 56.5t25.5 86.5l25 147q-207 -4 -356.5 -60t-149.5 -150zM432 1141q0 45 33 77.5 t76 32.5q39 0 67.5 -27.5t28.5 -68.5q0 -45 -35 -76.5t-76 -31.5q-39 0 -66.5 26.5t-27.5 67.5zM850 1141q0 41 31.5 75.5t76.5 34.5q39 0 68 -27.5t29 -68.5q0 -45 -35 -76.5t-76 -31.5q-39 0 -66.5 27.5t-27.5 66.5z" />
<glyph unicode="&#xe5;" d="M154 233q0 305 667 334q6 25 6 58q0 18 -5 37.5t-24.5 48t-68.5 47t-125 18.5q-86 0 -131 -10q0 -45 -22.5 -71.5t-41 -32t-32.5 -5.5q-35 0 -60.5 22.5t-25.5 61.5q0 160 313 160q94 0 166 -24.5t108.5 -57.5t59.5 -75t28 -69.5t5 -49.5l-78 -490q45 -10 106 -10 q86 0 86 -57q0 -31 -16 -47.5t-33.5 -18.5t-54.5 -2q-90 0 -139 13.5t-76 52.5q-119 -78 -309 -78q-139 0 -221 71.5t-82 173.5zM295 236q0 -55 50 -89t130 -34q123 0 209 43q51 29 66.5 56.5t25.5 86.5l25 147q-207 -4 -356.5 -60t-149.5 -150zM436 1126q0 72 79 135.5 t196 63.5q90 0 152.5 -44t62.5 -114q0 -74 -79 -136t-196 -62q-90 0 -152.5 43.5t-62.5 113.5zM557 1130q0 -41 32 -65.5t75 -24.5q57 0 100 37t43 84q0 41 -32 66.5t-77 25.5q-57 0 -99 -39t-42 -84z" />
<glyph unicode="&#xe6;" d="M102 211q0 51 20.5 97t69 93.5t143.5 77t228 33.5q16 100 17 125q0 53 -29 94t-96 41q-10 0 -68 -4v-10q0 -49 -29.5 -76t-66.5 -27t-61.5 25t-24.5 61q0 59 59.5 108.5t196.5 49.5q158 0 215 -145q121 145 239 145q80 0 143.5 -67.5t63.5 -227.5q0 -98 -14 -147 t-29.5 -57.5t-46.5 -8.5h-370q0 -6 -1.5 -18.5t-1.5 -16.5q0 -121 49.5 -180t106.5 -59q39 0 76 31.5t59 80.5l4 7q2 6 4.5 11t7.5 11t10 11t14 8.5t20 3.5q25 0 41 -16.5t16 -37.5q0 -63 -79 -150t-183 -87q-139 0 -213 139q-43 -61 -121 -100t-162 -39q-92 0 -149.5 61.5 t-57.5 159.5zM219 215q0 -37 23.5 -68.5t79.5 -31.5q61 0 117.5 35.5t74.5 91.5q2 6 3 16t7 45t17 84q-174 -10 -248 -60.5t-74 -111.5zM686 516h313l7 86q0 170 -93 170q-51 0 -118.5 -63.5t-108.5 -192.5z" />
<glyph unicode="&#xe7;" d="M217 375q0 201 153.5 362.5t374.5 161.5q51 0 82 -1t79 -8t77 -21.5t50.5 -42t21.5 -66.5q0 -43 -29 -74t-68 -31q-37 0 -61.5 25t-24.5 61q0 16 2 25q-41 6 -122 6h-9q-160 0 -271.5 -126t-111.5 -269q0 -111 72 -185.5t191 -74.5q141 0 215 104q4 6 11 18.5t11 17.5 t12.5 12t19.5 9.5t28 2.5h4q27 0 43 -12.5t20 -24t4 -19.5q0 -18 -17.5 -50t-52 -69.5t-102 -70.5t-151.5 -43l-2 -17q147 -43 147 -174q0 -66 -42 -120t-128 -80q-90 -27 -264 -27h-29q-33 0 -49 17.5t-16 41.5q0 66 77 66h31q274 0 275 100q0 14 -7.5 25.5t-18.5 18.5 t-25.5 11.5t-25.5 6.5l-22 4h-12q-16 4 -30.5 19.5t-14.5 37.5q0 8 12 74q-139 27 -223 132.5t-84 246.5z" />
<glyph unicode="&#xe8;" d="M182 381q0 203 155 361.5t357 158.5q59 0 114.5 -16.5t109 -52t85 -108.5t31.5 -171q0 -78 -12 -114t-27.5 -42t-52.5 -6h-618q0 -139 87 -208.5t197 -69.5q70 0 134.5 31.5t103.5 91.5q16 29 28.5 37t43.5 8q70 0 69 -58q0 -23 -25.5 -59.5t-71.5 -77.5t-126 -69.5 t-172 -28.5q-176 0 -293 110.5t-117 282.5zM350 514h541q2 14 2 43q0 219 -201 219q-111 0 -208 -75.5t-134 -186.5zM598 1235q0 31 22.5 52.5t51.5 21.5h2q14 0 287 -127q53 -27 53 -64q0 -23 -21.5 -52.5t-50.5 -29.5h-2q-14 0 -283 127q-59 29 -59 72z" />
<glyph unicode="&#xe9;" d="M182 381q0 203 155 361.5t357 158.5q59 0 114.5 -16.5t109 -52t85 -108.5t31.5 -171q0 -78 -12 -114t-27.5 -42t-52.5 -6h-618q0 -139 87 -208.5t197 -69.5q70 0 134.5 31.5t103.5 91.5q16 29 28.5 37t43.5 8q70 0 69 -58q0 -23 -25.5 -59.5t-71.5 -77.5t-126 -69.5 t-172 -28.5q-176 0 -293 110.5t-117 282.5zM350 514h541q2 14 2 43q0 219 -201 219q-111 0 -208 -75.5t-134 -186.5zM461 1118q0 18 10.5 32.5t21.5 20t34 15.5q303 123 319 123q31 0 50.5 -20.5t19.5 -49.5q0 -37 -32 -56.5t-196 -84.5q-76 -31 -120 -49q-29 -12 -43 -13 q-33 0 -48.5 27.5t-15.5 54.5z" />
<glyph unicode="&#xea;" d="M182 381q0 203 155 361.5t357 158.5q59 0 114.5 -16.5t109 -52t85 -108.5t31.5 -171q0 -78 -12 -114t-27.5 -42t-52.5 -6h-618q0 -139 87 -208.5t197 -69.5q70 0 134.5 31.5t103.5 91.5q16 29 28.5 37t43.5 8q70 0 69 -58q0 -23 -25.5 -59.5t-71.5 -77.5t-126 -69.5 t-172 -28.5q-176 0 -293 110.5t-117 282.5zM350 514h541q2 14 2 43q0 219 -201 219q-111 0 -208 -75.5t-134 -186.5zM367 1079q0 31 49 62q289 172 301 176q6 2 14 2q23 0 94 -53q16 -14 64 -49q63 -47 104 -78q41 -29 41 -60q0 -27 -24.5 -53.5t-53.5 -26.5q-6 0 -11 1 t-10 3.5t-12.5 7.5t-14.5 10t-20.5 15.5t-25.5 20.5t-34.5 28.5t-45.5 36.5q-20 16 -57 49q-80 -51 -176 -112q-92 -59 -113 -60q-31 0 -50 26.5t-19 53.5z" />
<glyph unicode="&#xeb;" d="M182 381q0 203 155 361.5t357 158.5q59 0 114.5 -16.5t109 -52t85 -108.5t31.5 -171q0 -78 -12 -114t-27.5 -42t-52.5 -6h-618q0 -139 87 -208.5t197 -69.5q70 0 134.5 31.5t103.5 91.5q16 29 28.5 37t43.5 8q70 0 69 -58q0 -23 -25.5 -59.5t-71.5 -77.5t-126 -69.5 t-172 -28.5q-176 0 -293 110.5t-117 282.5zM350 514h541q2 14 2 43q0 219 -201 219q-111 0 -208 -75.5t-134 -186.5zM399 1141q0 45 34 77.5t77 32.5q39 0 67.5 -27.5t28.5 -68.5q0 -45 -34.5 -76.5t-75.5 -31.5q-39 0 -68 26.5t-29 67.5zM817 1141q0 43 32 76.5t79 33.5 q41 0 68.5 -28.5t27.5 -67.5q0 -43 -33 -75.5t-78 -32.5q-43 0 -69.5 27.5t-26.5 66.5z" />
<glyph unicode="&#xec;" d="M170 59q0 66 84 66h258l104 633h-221q-82 0 -82 59q0 66 84 66h291q82 0 82 -60q0 -10 -6 -43l-109 -655h205q82 0 82 -59q0 -66 -84 -66h-606q-82 0 -82 59zM496 1235q0 31 21.5 52.5t49.5 21.5h4q14 0 287 -127q53 -27 53 -64q0 -23 -21.5 -52.5t-49.5 -29.5h-2 q-16 0 -285 127q-57 29 -57 72z" />
<glyph unicode="&#xed;" d="M170 59q0 66 84 66h258l104 633h-221q-82 0 -82 59q0 66 84 66h291q82 0 82 -60q0 -10 -6 -43l-109 -655h205q82 0 82 -59q0 -66 -84 -66h-606q-82 0 -82 59zM584 1118q0 18 10.5 32.5t21.5 20t34 15.5q303 123 319 123q31 0 50.5 -20.5t19.5 -49.5q0 -37 -32 -56.5 t-196 -84.5q-76 -31 -120 -49q-29 -12 -43 -13q-33 0 -48.5 27.5t-15.5 54.5z" />
<glyph unicode="&#xee;" d="M170 59q0 66 84 66h258l104 633h-221q-82 0 -82 59q0 66 84 66h291q82 0 82 -60q0 -10 -6 -43l-109 -655h205q82 0 82 -59q0 -66 -84 -66h-606q-82 0 -82 59zM408 1079q0 31 49 62q289 172 301 176q6 2 14 2h2q14 0 45 -21.5t213 -156.5q43 -31 43 -62q0 -27 -24.5 -53.5 t-53.5 -26.5q-6 0 -11 1t-10 3.5t-12.5 7.5t-14.5 10t-20.5 15.5t-25.5 20.5t-34.5 28.5t-45.5 36.5q-20 16 -57 49q-80 -51 -176 -112q-92 -59 -113 -60q-31 0 -50 26.5t-19 53.5z" />
<glyph unicode="&#xef;" d="M219 59q0 68 74 68h213l106 629h-178q-76 0 -76 61q0 63 80 64h244q2 0 6 1t8 1q37 0 53.5 -19.5t16.5 -42.5q0 -10 -22.5 -146t-52 -308t-40.5 -240h168q72 0 72 -59q0 -66 -72 -68h-530q-70 0 -70 59zM436 1141q0 45 34 77.5t77 32.5q39 0 67.5 -27.5t28.5 -68.5 q0 -45 -35 -76.5t-75.5 -31.5t-68.5 25.5t-28 68.5zM854 1141q0 43 32 76.5t79 33.5q41 0 68.5 -28.5t27.5 -67.5q0 -45 -35 -76.5t-76 -31.5q-39 0 -67.5 26.5t-28.5 67.5z" />
<glyph unicode="&#xf0;" d="M182 371q0 207 149.5 367.5t344.5 160.5q80 0 162 -37q-43 76 -150 162q-115 -68 -147 -68q-31 0 -46.5 27t-15.5 47q0 12 3 21.5t11.5 16.5t13.5 11t18.5 11.5t15.5 9.5q-39 10 -86 16t-71 8t-41 14.5t-17 39.5q0 25 21.5 49t64.5 24q68 0 134 -17t106 -33.5t44 -16.5 q10 0 68.5 32.5t83.5 32.5q31 0 46 -26.5t15 -46.5q0 -10 -4 -20.5t-10 -16.5t-17.5 -14.5t-17.5 -11.5t-19.5 -9t-17.5 -8q225 -199 226 -490q0 -152 -48.5 -273.5t-124 -194t-161.5 -110.5t-172 -38q-160 0 -260.5 110.5t-100.5 270.5zM328 381q0 -119 61.5 -192.5 t155.5 -73.5q129 0 238.5 123.5t109.5 275.5q0 113 -61.5 185.5t-157.5 72.5q-127 0 -236.5 -114.5t-109.5 -276.5z" />
<glyph unicode="&#xf1;" d="M35 59q0 66 84 66h100l105 633h-80q-84 0 -84 57q0 68 86 68h149q82 0 82 -60q0 -6 -2 -16t-2 -12q133 100 272 100q111 0 173.5 -54.5t62.5 -168.5q0 -39 -16 -133l-68 -414h80q82 0 82 -59q0 -66 -84 -66h-313q-82 0 -82 59q0 66 84 66h90l82 493q4 25 4 54 q0 49 -21.5 73.5t-83.5 24.5q-90 0 -168 -55.5t-116 -132.5q-25 -57 -89 -457h80q82 0 82 -59q0 -66 -84 -66h-323q-82 0 -82 59zM358 1071q0 29 35 57q150 123 244 123q49 0 84 -27.5t58.5 -55t41.5 -27.5q39 2 114 55t91 53q25 0 44.5 -19.5t19.5 -46t-33 -53.5 q-152 -125 -246 -124q-49 0 -85 27.5t-59.5 54t-41.5 26.5q-35 0 -112 -54t-95 -54q-20 0 -40 19t-20 46z" />
<glyph unicode="&#xf2;" d="M184 362q0 211 154 375t348 164q147 0 248.5 -104.5t101.5 -272.5q0 -215 -154.5 -375.5t-346.5 -160.5q-145 0 -248 101t-103 273zM328 387q0 -115 63.5 -194.5t163.5 -79.5q135 0 238.5 128t103.5 277q0 111 -64.5 184.5t-166.5 73.5q-129 0 -233.5 -114.5 t-104.5 -274.5zM530 1235q0 31 21.5 52.5t50.5 21.5h4q14 0 287 -127q53 -27 53 -64q0 -23 -21.5 -52.5t-50.5 -29.5h-2q-16 0 -284 127q-58 29 -58 72z" />
<glyph unicode="&#xf3;" d="M184 362q0 211 154 375t348 164q147 0 248.5 -104.5t101.5 -272.5q0 -215 -154.5 -375.5t-346.5 -160.5q-145 0 -248 101t-103 273zM328 387q0 -115 63.5 -194.5t163.5 -79.5q135 0 238.5 128t103.5 277q0 111 -64.5 184.5t-166.5 73.5q-129 0 -233.5 -114.5 t-104.5 -274.5zM500 1118q0 18 10.5 32.5t21.5 20t34 15.5q303 123 319 123q31 0 50.5 -20.5t19.5 -49.5q0 -37 -32 -56.5t-196 -84.5q-76 -31 -120 -49q-29 -12 -43 -13q-33 0 -48.5 27.5t-15.5 54.5z" />
<glyph unicode="&#xf4;" d="M184 362q0 211 154 375t348 164q147 0 248.5 -104.5t101.5 -272.5q0 -215 -154.5 -375.5t-346.5 -160.5q-145 0 -248 101t-103 273zM328 387q0 -115 63.5 -194.5t163.5 -79.5q135 0 238.5 128t103.5 277q0 111 -64.5 184.5t-166.5 73.5q-129 0 -233.5 -114.5 t-104.5 -274.5zM383 1079q0 31 49 62q289 172 301 176q6 2 15 2q23 0 94 -53q16 -14 63 -49q63 -47 105 -78q41 -29 41 -60q0 -27 -25 -53.5t-53 -26.5q-6 0 -11.5 1t-10.5 3.5t-12 7.5l-14 10t-20.5 15.5t-26 20.5t-35 28.5t-44.5 36.5q-20 16 -58 49q-80 -51 -176 -112 q-92 -59 -112 -60q-31 0 -50.5 26.5t-19.5 53.5z" />
<glyph unicode="&#xf5;" d="M184 362q0 211 154 375t348 164q147 0 248.5 -104.5t101.5 -272.5q0 -215 -154.5 -375.5t-346.5 -160.5q-145 0 -248 101t-103 273zM328 387q0 -115 63.5 -194.5t163.5 -79.5q135 0 238.5 128t103.5 277q0 111 -64.5 184.5t-166.5 73.5q-129 0 -233.5 -114.5 t-104.5 -274.5zM358 1071q0 29 35 57q152 123 246 123q47 0 83 -27.5t58.5 -55t40.5 -27.5q39 2 115 55t92 53q25 0 44.5 -19.5t19.5 -45.5q0 -25 -35 -54q-152 -125 -246 -124q-63 0 -115.5 54t-68.5 54q-41 -2 -113 -55t-92 -53q-25 0 -44.5 19t-19.5 46z" />
<glyph unicode="&#xf6;" d="M184 362q0 211 154 375t348 164q147 0 248.5 -104.5t101.5 -272.5q0 -215 -154.5 -375.5t-346.5 -160.5q-145 0 -248 101t-103 273zM328 387q0 -115 63.5 -194.5t163.5 -79.5q135 0 238.5 128t103.5 277q0 111 -64.5 184.5t-166.5 73.5q-129 0 -233.5 -114.5 t-104.5 -274.5zM416 1141q0 45 33.5 77.5t76.5 32.5q37 0 67 -27.5t30 -68.5q0 -45 -35 -76.5t-76 -31.5q-39 0 -67.5 26.5t-28.5 67.5zM834 1141q0 43 31.5 76.5t78.5 33.5q41 0 68.5 -28.5t27.5 -67.5q0 -43 -32.5 -75.5t-77.5 -32.5q-43 0 -69.5 27.5t-26.5 66.5z" />
<glyph unicode="&#xf7;" d="M180 626.5q0 24.5 16.5 45t47.5 24.5h772q84 0 84 -69q0 -72 -86 -72h-750q-47 2 -65.5 24.5t-18.5 47zM465 266q0 53 38 88t85 35q49 0 79.5 -31.5t30.5 -76.5q0 -53 -38.5 -88t-84.5 -35q-47 0 -78.5 29.5t-31.5 78.5zM584 971q0 51 37.5 87t85.5 36q43 0 75.5 -31 t32.5 -78q0 -51 -38 -87t-85 -36q-45 0 -76.5 32t-31.5 77z" />
<glyph unicode="&#xf8;" d="M49 -225q0 20 37 69q12 16 43 60q53 70 92 121q33 45 49 65v2q-113 106 -112 273q0 209 159.5 371.5t368.5 162.5q74 0 164 -35l197 266l20 23l10 8l17 6l18 2q49 -12 57 -55v-18l-8 -23l-209 -278q111 -109 111 -277q0 -209 -159 -368.5t-367 -159.5q-90 0 -162 30 q-207 -276 -225 -294q-14 -12 -37 -13q-20 0 -42 17.5t-22 44.5zM276 387q0 -119 74 -188l416 557q-49 16 -100 16q-154 0 -272 -117.5t-118 -267.5zM457 131q61 -16 98 -16q152 0 270.5 113.5t118.5 267.5q0 104 -72 190z" />
<glyph unicode="&#xf9;" d="M160 815q0 68 86 68h149q82 0 82 -60q0 -4 -4 -29.5t-11 -64.5t-9 -57l-25 -148q-6 -29 -14 -86t-15 -86q-25 -160 -24 -162q0 -16 3 -27t15.5 -24.5t42 -19.5t76.5 -6q94 0 165 46t95 107q10 29 86 492h-80q-84 0 -84 57q0 68 86 68h150q82 0 82 -60q0 -10 -6 -43 l-109 -655h80q82 0 82 -59q0 -66 -84 -66h-150q-78 0 -84 59q-104 -72 -243 -71q-264 0 -265 200q0 27 7 62l84 508h-80q-84 0 -84 57zM502 1235q0 31 22.5 52.5t51.5 21.5h2q16 0 287 -127q55 -25 55 -64q0 -25 -21.5 -53.5t-50.5 -28.5h-4q-14 0 -283 127q-59 29 -59 72z " />
<glyph unicode="&#xfa;" d="M160 815q0 68 86 68h149q82 0 82 -60q0 -4 -4 -29.5t-11 -64.5t-9 -57l-25 -148q-6 -29 -14 -86t-15 -86q-25 -160 -24 -162q0 -16 3 -27t15.5 -24.5t42 -19.5t76.5 -6q94 0 165 46t95 107q10 29 86 492h-80q-84 0 -84 57q0 68 86 68h150q82 0 82 -60q0 -10 -6 -43 l-109 -655h80q82 0 82 -59q0 -66 -84 -66h-150q-78 0 -84 59q-104 -72 -243 -71q-264 0 -265 200q0 27 7 62l84 508h-80q-84 0 -84 57zM500 1118q0 18 10.5 32.5t21.5 20t34 15.5q303 123 319 123q31 0 50.5 -20.5t19.5 -49.5q0 -37 -32 -56.5t-196 -84.5q-76 -31 -120 -49 q-29 -12 -43 -13q-33 0 -48.5 27.5t-15.5 54.5z" />
<glyph unicode="&#xfb;" d="M160 815q0 68 86 68h149q82 0 82 -60q0 -4 -4 -29.5t-11 -64.5t-9 -57l-25 -148q-6 -29 -14 -86t-15 -86q-25 -160 -24 -162q0 -16 3 -27t15.5 -24.5t42 -19.5t76.5 -6q94 0 165 46t95 107q10 29 86 492h-80q-84 0 -84 57q0 68 86 68h150q82 0 82 -60q0 -10 -6 -43 l-109 -655h80q82 0 82 -59q0 -66 -84 -66h-150q-78 0 -84 59q-104 -72 -243 -71q-264 0 -265 200q0 27 7 62l84 508h-80q-84 0 -84 57zM383 1079q0 31 51 62q291 172 298 175t16 3h4q18 0 170 -113q53 -41 86 -65q2 -2 8 -6.5t9 -7.5l9 -9t9.5 -11t5.5 -12.5t2 -15.5 q0 -27 -25 -53.5t-53 -26.5q-18 0 -53 27q-172 141 -179 145q-80 -51 -176 -112q-92 -59 -112 -60q-31 0 -50.5 26.5t-19.5 53.5z" />
<glyph unicode="&#xfc;" d="M160 815q0 68 86 68h149q82 0 82 -60q0 -4 -4 -29.5t-11 -64.5t-9 -57l-25 -148q-6 -29 -14 -86t-15 -86q-25 -160 -24 -162q0 -16 3 -27t15.5 -24.5t42 -19.5t76.5 -6q94 0 165 46t95 107q10 29 86 492h-80q-84 0 -84 57q0 68 86 68h150q82 0 82 -60q0 -10 -6 -43 l-109 -655h80q82 0 82 -59q0 -66 -84 -66h-150q-78 0 -84 59q-104 -72 -243 -71q-264 0 -265 200q0 27 7 62l84 508h-80q-84 0 -84 57zM416 1141q0 45 33.5 77.5t76.5 32.5q39 0 67 -26.5t28 -69.5q0 -45 -34 -76.5t-75 -31.5q-39 0 -67.5 26.5t-28.5 67.5zM834 1141 q0 41 32.5 75.5t77.5 34.5q39 0 67.5 -27.5t28.5 -68.5q0 -45 -34.5 -76.5t-75.5 -31.5t-68.5 27.5t-27.5 66.5z" />
<glyph unicode="&#xfd;" d="M37 -326q0 61 33.5 89t70.5 28q41 0 59.5 -21.5t18.5 -50.5q0 -33 -20 -61q111 6 194 135q14 23 60.5 113t46.5 96t-6 29l-168 727h-54q-84 0 -84 59q0 66 84 66h240q84 0 84 -58q0 -68 -86 -67h-59l110 -506q10 -51 19 -111l61 127l244 490h-45q-84 0 -84 59q0 66 84 66 h239q84 0 84 -58q0 -68 -86 -67h-69l-478 -936q-55 -111 -147 -200t-203 -89q-63 0 -103 39t-40 102zM610 1118q0 18 10.5 32.5t21.5 20t34 15.5q303 123 319 123q31 0 50.5 -20.5t19.5 -49.5q0 -37 -32 -56.5t-196 -84.5q-76 -31 -120 -49q-29 -12 -43 -13 q-33 0 -48.5 27.5t-15.5 54.5z" />
<glyph unicode="&#xfe;" d="M-41 -395q0 39 33 59q12 8 55 8h96l242 1452h-88q-74 0 -74 63.5t76 63.5h168q72 0 72 -57q0 -25 -9.5 -79t-26 -145t-26.5 -169q131 92 262 92q152 0 248 -108.5t96 -268.5q0 -213 -151.5 -369.5t-341.5 -156.5q-143 0 -232 110l-69 -428h80q82 0 82 -61q0 -66 -76 -66 h-342q-74 1 -74 60zM401 342q0 -29 8.5 -62.5t26 -73.5t55 -65.5t91.5 -25.5q133 0 244.5 120.5t111.5 280.5q0 111 -57.5 180.5t-151.5 69.5q-80 0 -154.5 -46t-117.5 -120q-16 -27 -29.5 -91.5t-19.5 -115.5z" />
<glyph unicode="&#xff;" d="M37 -326q0 61 33.5 89t70.5 28q41 0 59.5 -21.5t18.5 -50.5q0 -33 -20 -61q111 6 194 135q14 23 60.5 113t46.5 96t-6 29l-168 727h-54q-84 0 -84 59q0 66 84 66h240q84 0 84 -58q0 -68 -86 -67h-59l110 -506q10 -51 19 -111l61 127l244 490h-45q-84 0 -84 59q0 66 84 66 h239q84 0 84 -58q0 -68 -86 -67h-69l-478 -936q-55 -111 -147 -200t-203 -89q-63 0 -103 39t-40 102zM416 1141q0 45 33.5 77.5t76.5 32.5q37 0 67 -27.5t30 -68.5q0 -45 -35 -76.5t-76 -31.5q-39 0 -67.5 26.5t-28.5 67.5zM834 1141q0 41 32.5 75.5t77.5 34.5 q41 0 68.5 -28.5t27.5 -67.5q0 -43 -32.5 -75.5t-77.5 -32.5q-41 0 -68.5 27.5t-27.5 66.5z" />
<glyph unicode="&#x152;" d="M113 205q0 131 53 449.5t108 449.5q37 90 107 130t233 40q45 0 100.5 -11.5t108.5 -11.5h314q74 0 73 -59q0 -12 -16 -111.5t-23 -113.5q-16 -35 -53 -35q-20 0 -37.5 15.5t-17.5 39.5q0 27 20 137h-243l-68 -413h236l4 2h6q74 0 74 -62q0 -66 -74 -65h-268l-76 -459h258 q25 168 39 192q14 31 49 31q23 0 39 -16.5t16 -42.5q0 -2 -8 -60.5t-19.5 -122t-15.5 -73.5q-16 -35 -71 -35h-343q-53 0 -114.5 -11.5t-106.5 -11.5q-178 0 -231 50.5t-53 177.5zM236 274q0 -41 5 -65.5t21.5 -52t57 -41t106.5 -13.5q37 0 62.5 13.5t42 32t30.5 63.5 t21.5 85t21.5 118q2 16 4 24q92 547 92 606q0 51 -20.5 78t-89.5 27q-125 0 -180 -57q-68 -68 -121 -390t-53 -428z" />
<glyph unicode="&#x153;" d="M102 334q0 217 113 391t260 174q145 0 213 -176q109 176 248 176q74 0 132 -64.5t58 -220.5q0 -129 -20 -184q-14 -39 -72 -39h-334q-2 -16 -2 -45q0 -106 41 -167.5t92 -61.5q33 0 64 28.5t43 51t16 32.5q20 51 60 52q23 0 40 -15.5t17 -42.5q0 -53 -72.5 -143 t-175.5 -90q-150 0 -217 180q-115 -180 -264 -180q-106 0 -173 97t-67 247zM221 348q0 -100 34 -165.5t91 -65.5q90 0 172 139t82 297q0 92 -35 155.5t-92 63.5q-88 0 -170 -127t-82 -297zM725 516h279q6 45 6 94q0 162 -78 162q-59 0 -120.5 -81t-86.5 -175z" />
<glyph unicode="&#x178;" d="M236 1186q0 66 83 65h213q84 0 84 -57q0 -31 -16 -47.5t-34.5 -18.5t-55.5 -2l72 -231q55 -188 61 -248h2q14 37 148 252l145 227q-84 0 -84 60q0 66 84 65h213q84 0 84 -57q0 -68 -86 -68h-53l-404 -626l-63 -375h41q84 0 84 -57q0 -68 -84 -68h-244q-84 0 -84 57 q0 68 86 68h59l64 375l-199 626h-35q-81 1 -81 60zM487 1567q0 45 35 77.5t76 32.5t68.5 -28.5t27.5 -67.5q0 -45 -34.5 -76.5t-75.5 -31.5q-39 0 -68 26.5t-29 67.5zM905 1567q0 45 34 77.5t77 32.5q39 0 67.5 -26.5t28.5 -67.5q0 -45 -35 -77.5t-76 -32.5 q-37 0 -66.5 26.5t-29.5 67.5z" />
<glyph unicode="&#x2c6;" d="M383 1079q0 31 51 62q291 172 298 175t16 3h4q18 0 170 -113q53 -41 86 -65q2 -2 8 -6.5t9 -7.5l9 -9t9.5 -11t5.5 -12.5t2 -15.5q0 -27 -25 -53.5t-53 -26.5q-18 0 -53 27q-172 141 -179 145q-80 -51 -176 -112q-92 -59 -112 -60q-31 0 -50.5 26.5t-19.5 53.5z" />
<glyph unicode="&#x2dc;" d="M358 1071q0 29 35 57q150 123 244 123q49 0 84 -27.5t58.5 -55t41.5 -27.5q39 2 114 55t91 53q25 0 44.5 -19.5t19.5 -46t-33 -53.5q-152 -125 -246 -124q-49 0 -85 27.5t-59.5 54t-41.5 26.5q-35 0 -112 -54t-95 -54q-20 0 -40 19t-20 46z" />
<glyph unicode="&#x2000;" horiz-adv-x="847" />
<glyph unicode="&#x2001;" horiz-adv-x="1694" />
<glyph unicode="&#x2002;" horiz-adv-x="847" />
<glyph unicode="&#x2003;" horiz-adv-x="1694" />
<glyph unicode="&#x2004;" horiz-adv-x="564" />
<glyph unicode="&#x2005;" horiz-adv-x="423" />
<glyph unicode="&#x2006;" horiz-adv-x="282" />
<glyph unicode="&#x2007;" horiz-adv-x="282" />
<glyph unicode="&#x2008;" horiz-adv-x="211" />
<glyph unicode="&#x2009;" horiz-adv-x="338" />
<glyph unicode="&#x200a;" horiz-adv-x="94" />
<glyph unicode="&#x2010;" d="M250 436q0 14 4 27.5t22.5 27t47.5 13.5h575q68 0 68 -60q0 -66 -74 -65h-576q-67 2 -67 57z" />
<glyph unicode="&#x2011;" d="M250 436q0 14 4 27.5t22.5 27t47.5 13.5h575q68 0 68 -60q0 -66 -74 -65h-576q-67 2 -67 57z" />
<glyph unicode="&#x2012;" d="M250 436q0 14 4 27.5t22.5 27t47.5 13.5h575q68 0 68 -60q0 -66 -74 -65h-576q-67 2 -67 57z" />
<glyph unicode="&#x2013;" d="M250 436q0 14 4 27.5t22.5 27t47.5 13.5h575q68 0 68 -60q0 -66 -74 -65h-576q-67 2 -67 57z" />
<glyph unicode="&#x2014;" d="M250 436q0 14 4 27.5t22.5 27t47.5 13.5h575q68 0 68 -60q0 -66 -74 -65h-576q-67 2 -67 57z" />
<glyph unicode="&#x2018;" d="M502 909q0 98 46 192.5t107.5 155t118.5 98.5t88 38q25 0 44.5 -20.5t19.5 -43.5q0 -10 -3 -18t-7.5 -13.5t-12.5 -11.5l-12 -9t-15.5 -8t-13.5 -7q-186 -100 -229 -306q27 10 55 11q49 0 83 -32t34 -83q0 -55 -40 -98t-101 -43q-72 0 -117 56t-45 142z" />
<glyph unicode="&#x2019;" d="M473 633q0 8 2 15t7 13.5t8.5 10.5t11.5 9t11 7t13 8l11 4q186 100 229 304q-18 -8 -55 -9q-49 0 -83 32t-34 83q0 55 40 98t101 43q72 0 117 -55t45 -145q0 -98 -46 -192.5t-107.5 -155t-120 -97.5t-86.5 -37q-25 0 -44.5 19.5t-19.5 44.5z" />
<glyph unicode="&#x201a;" d="M332 -219q0 47 51 55q137 49 190 166q-6 -2 -26 -2q-49 0 -83 31.5t-34 85t39 96.5t102 43q68 0 109 -50t41 -122q0 -141 -119 -255t-205 -114q-29 0 -47 21.5t-18 44.5z" />
<glyph unicode="&#x201c;" d="M168 883q0 139 113.5 252.5t191.5 113.5q27 0 45.5 -20.5t18.5 -42.5q0 -27 -21.5 -43.5t-52.5 -26.5t-74 -49t-74 -102q4 0 11.5 1t11.5 1h4q53 0 85 -33t32 -82q0 -55 -40 -98t-102 -43q-66 0 -107.5 49t-41.5 123zM858 883q0 139 113.5 252.5t191.5 113.5 q27 0 44.5 -20.5t17.5 -42.5q0 -27 -22.5 -43.5t-53.5 -27.5t-73 -49t-72 -101q4 0 12 1t12 1h4q53 0 85 -33t32 -82q0 -55 -40 -98t-101 -43q-66 0 -108 49t-42 123z" />
<glyph unicode="&#x201d;" d="M174 774q0 27 22.5 44.5t54.5 29.5t74 50t70 99q-4 0 -12 -1t-12 -1h-4q-53 0 -85 33t-32 82q0 55 40 98t101 43q70 0 110 -51t40 -121q0 -92 -67.5 -199.5t-199.5 -158.5q-31 -10 -38 -10q-27 0 -44.5 20t-17.5 43zM862 776q0 27 22.5 44.5t54.5 28.5t74 49t70 99 q-4 0 -11 -1t-11 -1h-4q-53 0 -85 33t-32 82q0 55 40 98t101 43q70 0 110 -51t40 -121q0 -139 -112.5 -253.5t-192.5 -114.5q-25 0 -44.5 20t-19.5 45z" />
<glyph unicode="&#x201e;" d="M8 -219q0 27 22.5 44t53.5 27.5t73 49.5t72 100q-4 0 -11 -1t-11 -1h-4q-53 0 -86 34t-33 83q0 55 40 97t101 42q66 0 108 -49t42 -121q0 -88 -65.5 -196.5t-200.5 -163.5q-25 -8 -39 -9q-27 0 -44.5 20.5t-17.5 43.5zM696 -219q0 27 22.5 43t53.5 27.5t73 50.5t73 100 q-4 0 -10.5 -1t-10.5 -1h-6q-53 0 -85 34t-32 83q0 55 40 97t101 42q66 0 108 -49t42 -121q0 -88 -65.5 -196.5t-200.5 -163.5q-25 -8 -39 -9q-25 0 -44.5 19.5t-19.5 44.5z" />
<glyph unicode="&#x2022;" d="M219 569q0 190 147.5 332.5t331.5 142.5q154 0 259.5 -102t105.5 -260q0 -190 -146.5 -331.5t-332.5 -141.5q-154 0 -259.5 101t-105.5 259z" />
<glyph unicode="&#x2026;" d="M121 117q0 55 43 97t98 42q51 0 84 -34t33 -83q0 -55 -43 -97t-96 -42q-49 0 -84 33t-35 84zM428 117q0 55 43 97t98 42q51 0 84 -34t33 -83q0 -55 -43 -97t-96 -42q-49 0 -84 33t-35 84zM735 117q0 55 43 97t98 42q51 0 84 -34t33 -83q0 -55 -43 -97t-96 -42 q-49 0 -84 33t-35 84z" />
<glyph unicode="&#x202f;" horiz-adv-x="338" />
<glyph unicode="&#x2039;" d="M209 451q0 29 45 59l580 373q29 16 49 16q25 0 43 -16.5t18 -40.5q0 -33 -39 -60l-528 -338l389 -319l12 -10q14 -10 19.5 -16.5t11.5 -17.5t6 -24q0 -23 -17.5 -40t-45.5 -17q-10 0 -19.5 3t-13.5 6t-18.5 14.5t-20.5 15.5l-432 352q-39 33 -39 60z" />
<glyph unicode="&#x203a;" d="M279 57q0 33 38 60l437 278q61 41 92 60l-389 319l-15 10q-12 10 -17 16.5t-11 17.5t-6 24q0 23 17 40t46 17q27 0 72 -39l434 -352q35 -29 35 -59.5t-43 -59.5l-580 -373q-27 -16 -49 -16q-29 0 -45 18.5t-16 38.5z" />
<glyph unicode="&#x205f;" horiz-adv-x="423" />
<glyph unicode="&#x20ac;" d="M90 539q0 47 39 69q14 10 61 10l5 25q-78 0 -78 57q0 8 3 22.5t24.5 35t56.5 20.5h30q68 199 232 341.5t362 142.5q90 0 164 -36t112 -86t57.5 -94.5t19.5 -70.5q0 -23 -18.5 -50.5t-47.5 -29.5q-37 0 -48 27.5t-30.5 76t-68.5 82.5q-61 43 -144 43q-133 0 -252.5 -93 t-191.5 -253h586q74 0 73 -53q0 -82 -88 -82h-614l-4 -25h549q70 0 69 -55q0 -12 -3 -27.5t-25.5 -35t-61.5 -19.5h-534q12 -152 94 -248t219 -96q92 0 176 49.5t137 130.5q33 49 64 50q18 0 36.5 -13.5t18.5 -46.5q0 -78 -131 -192.5t-305 -114.5q-197 0 -317.5 136 t-131.5 345h-26q-68 3 -68 58z" />
<glyph unicode="&#x2122;" d="M106 1360q0 31 35 51q18 10 60 10h354q88 0 88 -63q0 -25 -21.5 -44.5t-64.5 -19.5q-4 0 -8 1t-8 1h-105l-88 -530q-14 -78 -76 -78q-68 0 -67 72q0 18 2 26l84 510h-86q-59 0 -84 27q-15 14 -15 37zM561 752q0 14 2 22l99 594q14 76 73 76q43 0 61.5 -34t51.5 -159 q16 -63 26 -100q4 8 138 229q2 2 7 10.5t7 12.5t8 11t11.5 11.5t12.5 9.5t16 7t20 2q29 0 50 -17.5t21 -46.5q0 -14 -2 -22l-98 -594q-18 -76 -76 -76q-33 0 -51 19.5t-18 42.5q0 14 8 65t19 116.5t16 100.5q-39 -74 -60.5 -96.5t-54.5 -22.5q-20 0 -33.5 6.5t-24 22.5 t-14.5 26.5t-11 39t-11 41.5q-47 -287 -54 -306q-16 -49 -51 -53q-8 -2 -18 -2q-29 0 -49.5 18.5t-20.5 45.5z" />
<glyph unicode="&#xe000;" horiz-adv-x="880" d="M0 0v881h881v-881h-881z" />
<glyph unicode="&#xfb01;" d="M33 59q0 68 80 68h102l107 629h-62q-72 0 -72 59q0 66 74 66h80v2q18 131 41 188q49 92 173 141.5t257 49.5q246 0 246 -152q0 -45 -27.5 -75.5t-70.5 -30.5q-37 0 -62 24.5t-25 58.5q0 14 9 39q-45 10 -86 11q-98 0 -184.5 -39t-104.5 -94q-4 -10 -5 -21.5t-5 -39.5 t-11 -62h445q80 0 80 -60q0 -8 -4 -33l-111 -661h80q84 0 84 -61q0 -66 -78 -66h-336q-74 0 -74 59q0 68 78 68h103l104 629h-393l-105 -629h84q74 0 74 -61q0 -66 -76 -66h-338q-71 0 -71 59z" />
<glyph unicode="&#xfb02;" d="M33 59q0 68 80 68h102l107 629h-62q-72 0 -72 59q0 66 74 66h80v6q27 158 45 190q33 57 119 110.5t225 69.5h4l13 3h18l4 2h121l4 -2h8q68 -10 86 -11l8 2l2 -2h13q29 0 45 -16t16 -41q0 -18 -2 -27l-174 -1038h80q84 0 84 -61q0 -66 -78 -66h-336q-74 0 -74 59 q0 68 78 68h103l104 629h-393l-105 -629h84q74 0 74 -61q0 -66 -76 -66h-338q-71 0 -71 59zM487 881h392q29 178 28 182q0 6 -8 27.5t-10 42.5q-53 4 -80 4h-4q-115 0 -188.5 -36t-100.5 -79q-6 -8 -9 -20.5t-5 -24.5t-6.5 -41.5t-8.5 -54.5z" />
<glyph unicode="&#xfb03;" d="M2 59q0 68 72 68h53l104 629q-29 2 -45 19.5t-16 41.5q0 63 78 64h4l2 2q18 125 37.5 181t77.5 107q100 90 241 91q92 0 152 -64q94 63 207 64q78 0 129 -42t51 -110q0 -51 -31 -78.5t-65 -27.5q-37 0 -61.5 25.5t-24.5 60.5q0 14 10 45h-19q-66 0 -111.5 -37t-62.5 -76 q-8 -20 -28 -141h274q72 0 72 -60q0 -12 -4 -33l-97 -585q-2 -12 -7 -38t-7 -38h31q74 0 74 -61q0 -66 -74 -66h-203q-72 0 -72 59q0 14 4.5 27.5t22.5 27t47 13.5h27l104 629h-213l-104 -629h6q70 0 70 -59q0 -68 -72 -68h-170q-78 0 -78 59q0 25 16.5 46.5t51.5 21.5h30 l105 629h-213l-105 -629h7q70 0 69 -61q0 -66 -72 -66h-202q-72 0 -72 59zM397 881h213l25 143q-27 29 -27 61q0 25 10 50h-18q-61 0 -108.5 -34t-65.5 -77q-9 -22 -29 -143z" />
<glyph unicode="&#xfb04;" d="M2 59q0 68 72 68h53l104 629q-29 2 -45 19.5t-16 41.5q0 63 78 64h4l2 2q25 172 59 225q47 72 130 113t169 41q100 0 158 -58q12 12 63.5 31.5t108.5 26.5h66l4 -2h6q16 -2 26.5 -4.5t13.5 -3.5t7 -1h10h12l3 -2h12q61 0 61 -57q0 -18 -2 -27l-174 -1038h31q74 0 74 -61 q0 -66 -74 -66h-203q-72 0 -72 59q0 14 4.5 27.5t22.5 27t47 13.5h27l104 629h-213l-104 -629h6q70 0 70 -59q0 -68 -72 -68h-170q-78 0 -78 59q0 25 16.5 46.5t51.5 21.5h30l105 629h-213l-105 -629h7q70 0 69 -61q0 -66 -72 -66h-202q-72 0 -72 59zM397 881h213l33 174 q-23 31 -22 59q0 12 2 21h-23q-66 0 -111 -35t-63 -76q-9 -16 -29 -143zM756 881h213q31 178 30 182q0 10 -9 28.5t-11 43.5h-14q-47 0 -83 -15.5t-55.5 -34t-35 -54.5t-19.5 -53t-10 -56t-6 -41z" />
</font>
</defs>
</svg>
